<?xml version="1.0" encoding="UTF-8" standalone="no"?>
<!-- Created with Inkscape (http://www.inkscape.org/) -->

<svg xmlns:dc="http://purl.org/dc/elements/1.1/" xmlns:cc="http://creativecommons.org/ns#" xmlns:rdf="http://www.w3.org/1999/02/22-rdf-syntax-ns#" xmlns:svg="http://www.w3.org/2000/svg" xmlns="http://www.w3.org/2000/svg" xmlns:xlink="http://www.w3.org/1999/xlink" xmlns:sodipodi="http://sodipodi.sourceforge.net/DTD/sodipodi-0.dtd" xmlns:inkscape="http://www.inkscape.org/namespaces/inkscape" width="795.32971" height="207.29054" id="svg8432" version="1.1" inkscape:version="0.48.1 " sodipodi:docname="Boeing 747.svg">
  <defs id="defs8434">
    <radialGradient fx="0" fy="0" cx="0" cy="0" r="1" gradientUnits="userSpaceOnUse" gradientTransform="matrix(22.927512,-0.3026875,-0.3028,-22.927475,284.98695,192.02522)" spreadMethod="pad" id="radialGradient16394">
      <stop style="stop-opacity:1;stop-color:#ffffff" offset="0" id="stop16396" />
      <stop style="stop-opacity:1;stop-color:#000000" offset="1" id="stop16398" />
    </radialGradient>
    <radialGradient fx="0" fy="0" cx="0" cy="0" r="1" gradientUnits="userSpaceOnUse" gradientTransform="matrix(21.135425,-0.2791,-0.2791,-21.135262,316.94629,192.89608)" spreadMethod="pad" id="radialGradient16384">
      <stop style="stop-opacity:1;stop-color:#ffffff" offset="0" id="stop16386" />
      <stop style="stop-opacity:1;stop-color:#000000" offset="1" id="stop16388" />
    </radialGradient>
    <radialGradient fx="0" fy="0" cx="0" cy="0" r="1" gradientUnits="userSpaceOnUse" gradientTransform="matrix(22.947325,-0.303025,-0.303,-22.947237,382.98348,180.05301)" spreadMethod="pad" id="radialGradient16368">
      <stop style="stop-opacity:1;stop-color:#ffffff" offset="0" id="stop16370" />
      <stop style="stop-opacity:1;stop-color:#000000" offset="1" id="stop16372" />
    </radialGradient>
    <radialGradient fx="0" fy="0" cx="0" cy="0" r="1" gradientUnits="userSpaceOnUse" gradientTransform="matrix(20.764125,-0.2742375,-0.2742375,-20.764162,415.34097,180.91577)" spreadMethod="pad" id="radialGradient16358">
      <stop style="stop-opacity:1;stop-color:#ffffff" offset="0" id="stop16360" />
      <stop style="stop-opacity:1;stop-color:#000000" offset="1" id="stop16362" />
    </radialGradient>
    <linearGradient gradientTransform="matrix(1.25,0,0,-1.25,158.31876,246.81342)" inkscape:collect="always" xlink:href="#linearGradient8410" id="linearGradient8416" x1="182.34375" y1="86.154785" x2="183.06209" y2="65.996628" gradientUnits="userSpaceOnUse" />
    <linearGradient inkscape:collect="always" id="linearGradient8410">
      <stop style="stop-color:#0f59ff;stop-opacity:1" offset="0" id="stop8412" />
      <stop style="stop-color:#4a7dff;stop-opacity:0;" offset="1" id="stop8414" />
    </linearGradient>
    <linearGradient inkscape:collect="always" id="linearGradient8426">
      <stop style="stop-color:#2a2724;stop-opacity:1;" offset="0" id="stop8428" />
      <stop style="stop-color:#2a2724;stop-opacity:0;" offset="1" id="stop8430" />
    </linearGradient>
    <linearGradient gradientTransform="matrix(1.25,0,0,-1.25,158.31876,246.81342)" y2="38.498035" x2="146.92108" y1="136.70731" x1="148.49243" gradientUnits="userSpaceOnUse" id="linearGradient8631" xlink:href="#linearGradient8426" inkscape:collect="always" />
    <radialGradient fx="0" fy="0" cx="0" cy="0" r="1" gradientUnits="userSpaceOnUse" gradientTransform="matrix(22.927512,-0.3026875,-0.3028,-22.927475,284.98694,192.02523)" spreadMethod="pad" id="radialGradient16394-5">
      <stop style="stop-opacity:1;stop-color:#ffffff" offset="0" id="stop16396-8" />
      <stop style="stop-opacity:1;stop-color:#000000" offset="1" id="stop16398-7" />
    </radialGradient>
    <radialGradient fx="0" fy="0" cx="0" cy="0" r="1" gradientUnits="userSpaceOnUse" gradientTransform="matrix(21.135425,-0.2791,-0.2791,-21.135262,316.94628,192.89609)" spreadMethod="pad" id="radialGradient16384-3">
      <stop style="stop-opacity:1;stop-color:#ffffff" offset="0" id="stop16386-1" />
      <stop style="stop-opacity:1;stop-color:#000000" offset="1" id="stop16388-1" />
    </radialGradient>
    <radialGradient fx="0" fy="0" cx="0" cy="0" r="1" gradientUnits="userSpaceOnUse" gradientTransform="matrix(22.947325,-0.303025,-0.303,-22.947237,382.98347,180.05302)" spreadMethod="pad" id="radialGradient16368-1">
      <stop style="stop-opacity:1;stop-color:#ffffff" offset="0" id="stop16370-2" />
      <stop style="stop-opacity:1;stop-color:#000000" offset="1" id="stop16372-1" />
    </radialGradient>
    <radialGradient fx="0" fy="0" cx="0" cy="0" r="1" gradientUnits="userSpaceOnUse" gradientTransform="matrix(20.764125,-0.2742375,-0.2742375,-20.764162,415.34096,180.91578)" spreadMethod="pad" id="radialGradient16358-1">
      <stop style="stop-opacity:1;stop-color:#ffffff" offset="0" id="stop16360-2" />
      <stop style="stop-opacity:1;stop-color:#000000" offset="1" id="stop16362-2" />
    </radialGradient>
    <linearGradient gradientTransform="matrix(1.25,0,0,-1.25,158.31875,246.81343)" inkscape:collect="always" xlink:href="#linearGradient8410-0" id="linearGradient8416-1" x1="183.06209" y1="81.710114" x2="183.06209" y2="65.996628" gradientUnits="userSpaceOnUse" />
    <linearGradient inkscape:collect="always" id="linearGradient8410-0">
      <stop style="stop-color:#4a7dff;stop-opacity:1;" offset="0" id="stop8412-7" />
      <stop style="stop-color:#4a7dff;stop-opacity:0;" offset="1" id="stop8414-9" />
    </linearGradient>
  </defs>
  <sodipodi:namedview id="base" pagecolor="#ffffff" bordercolor="#666666" borderopacity="1.0" inkscape:pageopacity="0.0" inkscape:pageshadow="2" inkscape:zoom="0.49497475" inkscape:cx="568.34093" inkscape:cy="313.55187" inkscape:document-units="px" inkscape:current-layer="layer1" showgrid="false" fit-margin-top="0" fit-margin-left="0" fit-margin-right="0" fit-margin-bottom="0" inkscape:window-width="1366" inkscape:window-height="706" inkscape:window-x="-8" inkscape:window-y="-8" inkscape:window-maximized="1" />
  <metadata id="metadata8437">
    <rdf:RDF>
      <cc:Work rdf:about="">
        <dc:format>image/svg+xml</dc:format>
        <dc:type rdf:resource="http://purl.org/dc/dcmitype/StillImage" />
        <dc:title></dc:title>
      </cc:Work>
    </rdf:RDF>
  </metadata>
  <g inkscape:label="Calque 1" inkscape:groupmode="layer" id="layer1">
    <path inkscape:connector-curvature="0" d="m 442.70875,194.20093 -229.6975,3.2925 -37.505,0.495 c -17.1925,0.22625 -34.40125,-0.007 -51.575,-0.855 -28.981248,-1.5975 -58.379998,-4.35375 -86.1125,-12.92375 -9.16375,-2.8325 -18.2125,-6.3975 -26.48375,-11.25375 -4.625,-2.715 -10.90625,-6.37 -11.00875,-11.7325 0.21625,-1.5975 0.8625,-3.14625 1.68125,-4.535 10.095,-10.915 24.715,-16.69 38.02,-23.325 10.128752,-5.05 17.600002,-15.14875 28.352502,-18.67875 17.29,-5.67375 36.207498,-4.2775 54.403748,-4.52 28.6425,-0.38125 57.2825,-0.9425 85.92625,-1.13375 8.605,-0.0588 17.21125,0.0775 25.81,0.385 35.20625,1.2575 70.2625,5.49875 105.23875,9.70125 19.38125,-0.25625 38.7625,-0.5125 58.14375,-0.76875 47.7375,-0.63 95.48125,-0.905 143.21375,-1.89125 26.04,-0.5375 52.055,-2.0525 78.09375,-2.6775 6.8875,-0.165 13.77875,0.1675 20.6675,0.30625 26.555,0.5325 53.11375,-0.95375 79.66,-1.83625 17.3925,-0.57875 38.46625,-6.1525 51.985,4.80625 l 2.2875,6.8925 0.0275,0.3925 c -0.335,3.3 -1.2625,6.65875 -2.985,9.495 -8.05,9.405 -23.045,9.3475 -35.11875,12.08125 -25.61,5.7975 -51.20625,11.66 -76.83125,17.39125 -40.76125,9.11625 -81.20875,20.17625 -122.5525,26.1125 -31.045,4.4575 -62.59375,4.62875 -93.64125,4.78 z" style="fill:#e7e7e7;fill-opacity:1;fill-rule:nonzero;stroke:#000000;stroke-width:0.28435624;stroke-linecap:round;stroke-linejoin:round;stroke-miterlimit:10;stroke-opacity:1;stroke-dasharray:none" id="path16322" />
    <path inkscape:connector-curvature="0" d="M 703.75125,153.04218 0.0625,161.33093 c 0.21625,-1.59875 0.8625,-3.14625 1.68125,-4.53625 10.095,-10.915 24.71375,-16.68875 38.02,-23.32375 10.127502,-5.05125 17.598752,-15.15 28.352502,-18.67875 17.28875,-5.675 36.207498,-4.27875 54.402498,-4.52 28.6425,-0.3825 57.28375,-0.9425 85.9275,-1.135 8.60375,-0.0575 17.21125,0.0775 25.81,0.385 35.20625,1.2575 70.2625,5.5 105.23875,9.70125 19.38125,-0.25625 38.7625,-0.5125 58.14375,-0.7675 47.7375,-0.63125 95.48125,-0.90625 143.2125,-1.89125 26.04125,-0.5375 52.055,-2.0525 78.095,-2.67875 6.8875,-0.165 13.77875,0.16875 20.6675,0.30625 26.555,0.5325 53.11375,-0.9525 79.66,-1.83625 17.3925,-0.57875 38.46625,-6.1525 51.985,4.80625 l 2.2875,6.8925 0.0275,0.3925 c -0.33625,3.30125 -1.2625,6.66 -2.985,9.49625 -8.05,9.40375 -22.98625,8.7575 -35.06,11.49125 -9.9975,2.2625 -19.7475,4.30875 -31.7775,7.6075 z" style="fill:url(#linearGradient8416-1);fill-opacity:1;fill-rule:nonzero;stroke:#000000;stroke-width:0.06250387;stroke-linecap:round;stroke-linejoin:round;stroke-miterlimit:10;stroke-opacity:1;stroke-dasharray:none" id="path16324" />
    <path inkscape:connector-curvature="0" d="m 451.76375,175.21343 c 2.8825,1.5325 5.63375,3.36625 8.09125,5.51375 0.85125,1.11875 1.69125,2.35875 1.94625,3.74125 -0.075,1.45125 -0.81125,2.83 -1.5775,4.06625 -1.9525,1.75125 -4.3725,3.11 -6.915,3.755 -8.53375,1.64 -17.08,3.33875 -25.72375,4.2325 -9.52625,0.7 -19.085,0.92875 -28.635,1.07875 -1.90875,0.0362 -3.8175,0.0412 -5.72625,0.0925 l -59.22,0.66625 -69.85,0.21 c -19.05625,-0.18 -38.235,0.71375 -57.14875,-1.6175 -4.40125,-0.835 -8.84875,-1.8025 -12.945,-3.61875 -2.0275,-1.14875 -4.15875,-2.83125 -4.815,-5.06625 -0.002,-1.52375 0.97375,-2.96375 1.9475,-4.13625 6.4075,-5.92875 14.8725,-9.18625 22.66,-13.1325 5.48125,-2.7775 10.14875,-6.97625 15.56375,-9.88125 4.3975,-2.1475 9.43,-3.59375 14.31375,-3.27625 l 17.185,-0.2275 0.0725,5.4725 c 11.56,0.16625 23.14125,1.10125 34.56125,2.89875 l 156.215,9.22875 z" style="fill:#e7e7e7;fill-opacity:1;fill-rule:nonzero;stroke:#000000;stroke-width:0.28435624;stroke-linecap:round;stroke-linejoin:round;stroke-miterlimit:10;stroke-opacity:1;stroke-dasharray:none" id="path16326" />
    <path inkscape:connector-curvature="0" d="m 751.48875,111.17218 12.50375,-31.767505 26.605,-67.601247 4.59,-11.66124988 -44.94625,0.5925 -115.985,99.52125188 c -5.07875,3.66625 -10.6325,6.72875 -16.4,9.17 -6.045,2.4375 -11.7475,3.805 -18.19,4.8 l 75.76,0.22875 76.0625,-3.2825 z" style="fill:#e7e7e7;fill-opacity:1;fill-rule:nonzero;stroke:#000000;stroke-width:0.28435624;stroke-linecap:round;stroke-linejoin:round;stroke-miterlimit:10;stroke-opacity:1;stroke-dasharray:none" id="path16328" />
    <path inkscape:connector-curvature="0" d="m 398.55625,167.82968 63.93625,-0.845" style="fill:none;stroke:#000000;stroke-width:0.28435624;stroke-linecap:round;stroke-linejoin:round;stroke-miterlimit:10;stroke-opacity:1;stroke-dasharray:0.3125, 0.3125;stroke-dashoffset:0" id="path16330" />
    <path inkscape:connector-curvature="0" d="m 759.35,117.90593 -92.06875,12.63875 c -0.88625,0.145 -1.9275,0.33 -2.49,1.02875 1.6625,3.75375 7.29125,4.1075 11.33625,4.81125 8.29,1.155 16.7,1.375 25.07125,1.44875 18.21,-0.29625 36.28125,-3.2825 54.5325,-5.53375 l 31.105,-14.61875 -27.48625,0.225 z" style="fill:#c7caca;fill-opacity:1;fill-rule:nonzero;stroke:#000000;stroke-width:0.28435624;stroke-linecap:round;stroke-linejoin:round;stroke-miterlimit:10;stroke-opacity:1;stroke-dasharray:none" id="path16332" />
    <path inkscape:connector-curvature="0" d="m 433.3575,177.15093 10.29875,0.27 1.11125,0.01 1.11,-0.07 2.0825,-0.18375 0.9375,-0.58125 0.91,-0.68375 0.90375,-0.715 0.90375,-0.715 1.8125,-1.42125 0.90375,-0.71125 0.91,-0.695 0.71875,-0.52375 0.715,-0.5175 1.4475,-0.9875 1.4625,-0.93875 0.7325,-0.45375 0.73875,-0.4375 2.9,-1.59125 1.435,-0.71 1.44125,-0.6725 1.4525,-0.6275 1.4575,-0.58875 1.4375,-0.5375 1.44,-0.5 1.44625,-0.4625 1.45,-0.4475 2.885,-0.89375 2.885,-0.89625 6.2025,-1.94375 55.1975,-13.36 -37.09375,-0.57375 c -29.36,3.85125 -58.69125,7.14 -88.005,10.54 l -9.33375,1.10625 -9.3275,1.13375 -18.66,2.2825 -18.6725,2.12625 -9.35,0.9425 -9.35875,0.84125 -10.43125,0.8175 -18.855,1.235 -18.86875,1.01 -18.87375,0.84625 -18.875,0.71375 -4.53625,0.165 -4.52,0.42375 -2.085,0.32375 -2.0625,0.43 -2.0875,0.555 -2.065,0.65875 -2.1525,0.8475 -1.0325,0.51875 -0.98625,0.605 -1.1125,0.86125 -0.9925,0.99375 -0.675,0.8425 -0.59375,0.90125 -0.53,1.02625 -0.3775,1.085 -0.15125,1.13 0.13125,1.12875 0.3125,0.82375 0.485,0.7375 0.5625,0.57 0.64625,0.48 1.00125,0.57 1.0425,0.4975 1.01125,0.45125 1.01625,0.43625 1.025,0.41875 1.03875,0.37875 1.0125,0.31625 1.0225,0.27625 2.0675,0.5 1.03375,0.25875 1.025,0.26875 2.04625,0.57125 c 5.1925,1.4275 10.66875,1.82 16.05375,1.8225 l 4.2675,-0.0662 83.27375,-3.09375 0.90375,0.0738 2.9675,-0.12 1.485,-0.0613 2.22375,-0.10125 1.1125,-0.0562 1.11,-0.0588 1.48375,-0.09 0.74125,-0.045 1.40125,-0.0937 0.935,-0.0675 1.87,-0.145 66.0275,-8.38375 z" style="fill:#d8d8d5;fill-opacity:1;fill-rule:nonzero;stroke:#000000;stroke-width:0.28435624;stroke-linecap:round;stroke-linejoin:round;stroke-miterlimit:10;stroke-opacity:1;stroke-dasharray:none" id="path16334" />
    <path inkscape:connector-curvature="0" d="m 264.15375,198.56968 3.775,-0.05" style="fill:none;stroke:#000000;stroke-width:0.28435624;stroke-linecap:round;stroke-linejoin:round;stroke-miterlimit:10;stroke-opacity:1;stroke-dasharray:none" id="path16336" />
    <path inkscape:connector-curvature="0" d="m 72.035002,172.14093 -0.01125,-0.86125" style="fill:none;stroke:#000000;stroke-width:0.28435624;stroke-linecap:round;stroke-linejoin:round;stroke-miterlimit:10;stroke-opacity:1;stroke-dasharray:none" id="path16338" />
    <path inkscape:connector-curvature="0" d="m 278.135,177.24593 c 14.86,-3.97125 30.03875,-6.6925 45.1975,-9.29875 14.0875,2.02375 28.345,2.91125 42.5725,3.24875 l -0.4,8.0525 c -6.7325,1.93625 -12.67,7.08875 -19.61625,9.5075 -3.45625,0.57125 -6.99875,0.48125 -10.50125,0.41625 L 278.135,177.24593 z" style="fill:#d3d3d3;fill-opacity:1;fill-rule:nonzero;stroke:#000000;stroke-width:0.28435624;stroke-linecap:round;stroke-linejoin:round;stroke-miterlimit:10;stroke-opacity:1;stroke-dasharray:none" id="path16340" />
    <path inkscape:connector-curvature="0" d="m 417.98625,154.90093 0.0225,-10e-4 0.025,0 0.0138,0.002 0.0137,0 0.0175,0 0.007,0 0.0288,0.003 0.01,0 0.0175,0.002 0.007,0 0.0175,0.002" style="fill:none;stroke:#000000;stroke-width:0.28435624;stroke-linecap:round;stroke-linejoin:round;stroke-miterlimit:10;stroke-opacity:1;stroke-dasharray:none" id="path16342" />
    <path inkscape:connector-curvature="0" d="m 416.6025,156.72968 -0.14125,-0.0263 -0.0725,-0.0125 -0.0925,-0.0238 -0.0437,-0.0163 -0.07,-0.0275 -0.0537,-0.0263 -0.0275,-0.0138 -0.0362,-0.0275 -0.0512,-0.0462 -0.0362,-0.0412 -0.0225,-0.03 -0.04,-0.0637" style="fill:none;stroke:#000000;stroke-width:0.28435624;stroke-linecap:round;stroke-linejoin:round;stroke-miterlimit:10;stroke-opacity:1;stroke-dasharray:none" id="path16344" />
    <path inkscape:connector-curvature="0" d="m 487.43375,157.88718 c -13.64125,0.41875 -27.28375,1.0475 -40.93,0.9125 -10.185,-0.23125 -20.41,-0.7125 -30.535,-2.33875 0.0713,-0.9725 1.35,-1.26375 2.10875,-1.55625 -5.01625,-0.004 -9.5975,2.5825 -14.345,3.8975 -8.12125,2.24875 -16.3775,3.98875 -24.5175,6.16875 4.55375,2.25375 9.1075,4.5075 14.1125,7.135 5.00625,2.6275 10.4625,5.6275 16.54125,6.45875 6.08,0.83125 12.78125,-0.50625 16.73125,-1.18375 3.95,-0.6775 5.1475,-0.69375 7.44125,-0.5675 2.29375,0.12625 5.6825,0.39375 8.13125,0.46625 2.44875,0.0712 3.95875,-0.0525 5.1,-0.32875 1.1425,-0.275 1.91875,-0.7025 2.97625,-1.47125 1.0575,-0.76875 2.3975,-1.88125 3.86625,-3.04625 1.46875,-1.165 3.0675,-2.38375 4.79875,-3.475 1.73,-1.09 3.5925,-2.0525 5.3525,-2.91 1.76,-0.85625 3.41625,-1.6075 5.4125,-2.33625 1.995,-0.73 4.33,-1.4375 6.69,-2.19875 2.36,-0.76 4.745,-1.5725 6.59375,-2.18625 1.8475,-0.6125 3.15875,-1.02625 4.47125,-1.44 z" style="fill:#d3d3d3;fill-opacity:1;fill-rule:nonzero;stroke:#000000;stroke-width:0.28435624;stroke-linecap:round;stroke-linejoin:round;stroke-miterlimit:10;stroke-opacity:1;stroke-dasharray:none" id="path16346" />
    <path inkscape:connector-curvature="0" d="m 432.4175,187.29968 0.62875,-0.1025 1.42125,-0.26 4.97125,-1.005 8.17125,-2.03 0.29,-0.1925 0.1225,-0.32 -0.0875,-0.3325 -0.26125,-0.22125 -7.89375,-2.8675 -4.83,-1.51125 -1.38375,-0.40625 -0.66,-0.18 c -0.235,0.18125 -0.47,0.3625 -0.76125,1.1075 -0.29125,0.74375 -0.6375,2.05 -0.72625,3.275 -0.0875,1.22625 0.0838,2.37 0.2925,3.1975 0.21,0.82625 0.4575,1.3375 0.70625,1.84875 z" style="fill:#b8b6b5;fill-opacity:1;fill-rule:nonzero;stroke:#000000;stroke-width:0.28435624;stroke-linecap:round;stroke-linejoin:round;stroke-miterlimit:10;stroke-opacity:1;stroke-dasharray:none" id="path16348" />
    <path inkscape:connector-curvature="0" d="m 399.015,190.57093 -0.18375,1.64625 -0.16875,1.1275 -0.14875,0.55375" style="fill:#b8b6b5;fill-opacity:1;fill-rule:nonzero;stroke:#000000;stroke-width:0.28435624;stroke-linecap:round;stroke-linejoin:round;stroke-miterlimit:10;stroke-opacity:1;stroke-dasharray:none" id="path16350" />
    <path inkscape:connector-curvature="0" d="m 432.87375,187.22968 -0.115,1.135 -0.10625,0.795 -0.0913,0.41 -0.075,0.001" style="fill:#b8b6b5;fill-opacity:1;fill-rule:nonzero;stroke:#000000;stroke-width:0.28435624;stroke-linecap:round;stroke-linejoin:round;stroke-miterlimit:10;stroke-opacity:1;stroke-dasharray:none" id="path16352" />
    <path inkscape:connector-curvature="0" d="m 400.35125,203.44968 0.11125,1.0975 0.03,2.2275" style="fill:#b8b6b5;fill-opacity:1;fill-rule:nonzero;stroke:#000000;stroke-width:0.28435624;stroke-linecap:round;stroke-linejoin:round;stroke-miterlimit:10;stroke-opacity:1;stroke-dasharray:none" id="path16354" />
    <path inkscape:connector-curvature="0" d="m 433.22625,175.60343 0.0563,0.0325 0.065,0.765 0.005,1.59125" style="fill:#b8b6b5;fill-opacity:1;fill-rule:nonzero;stroke:#000000;stroke-width:0.28435624;stroke-linecap:round;stroke-linejoin:round;stroke-miterlimit:10;stroke-opacity:1;stroke-dasharray:none" id="path16356" />
    <path inkscape:connector-curvature="0" d="m 398.25625,190.55343 15.115,0.33625 2.5,0.03 1.2525,-0.005 1.8775,-0.0362 2.81375,-0.1175 2.8075,-0.1925 1.40125,-0.12375 2.17125,-0.23125 1.445,-0.1775 2.86375,-0.44 -0.0575,-0.3275 -0.0275,-0.555 -0.007,-0.79125 0.0125,-0.9975 0.0725,-2.445 0.13125,-2.73125 0.17375,-2.59875 0.18375,-2.0775 0.0875,-0.73625 0.0813,-0.49625 0.085,-0.24625 -2.81,-0.72 -1.41875,-0.32875 -2.135,-0.4525 -1.385,-0.2675 -2.77125,-0.4825 -2.78625,-0.41 -1.86375,-0.23125 -1.2425,-0.13625 -2.49125,-0.225 -15.06875,-1.235 c -0.475,3.3175 -0.94875,6.635 -1.2475,9.54375 -0.29875,2.91 -0.42125,5.4125 -0.3525,6.995 0.0688,1.5825 0.33,2.24625 0.59,2.91" style="fill:url(#radialGradient16358-1);fill-opacity:1;fill-rule:nonzero;stroke:none" id="path16364" />
    <path inkscape:connector-curvature="0" d="m 398.25625,190.55343 15.115,0.33625 2.5,0.03 1.2525,-0.005 1.8775,-0.0362 2.81375,-0.1175 2.8075,-0.1925 1.40125,-0.12375 2.17125,-0.23125 1.445,-0.1775 2.86375,-0.44 -0.0575,-0.3275 -0.0275,-0.555 -0.007,-0.79125 0.0125,-0.9975 0.0725,-2.445 0.13125,-2.73125 0.17375,-2.59875 0.18375,-2.0775 0.0875,-0.73625 0.0813,-0.49625 0.085,-0.24625 -2.81,-0.72 -1.41875,-0.32875 -2.135,-0.4525 -1.385,-0.2675 -2.77125,-0.4825 -2.78625,-0.41 -1.86375,-0.23125 -1.2425,-0.13625 -2.49125,-0.225 -15.06875,-1.235 c -0.475,3.3175 -0.94875,6.635 -1.2475,9.54375 -0.29875,2.91 -0.42125,5.4125 -0.3525,6.995 0.0688,1.5825 0.33,2.24625 0.59,2.91 z" style="fill:none;stroke:#000000;stroke-width:0.28435624;stroke-linecap:round;stroke-linejoin:round;stroke-miterlimit:10;stroke-opacity:1;stroke-dasharray:none" id="path16366" />
    <path inkscape:connector-curvature="0" d="m 399.8525,167.79468 -3.00125,-0.765 -3.00125,-0.61625 -6.0675,-0.9225 -6.085,-0.47125 -6.10625,0.0463 -8.01875,1.00625 -0.4175,0.105 -0.38375,0.18375 -0.35375,0.27375 -0.2825,0.3125 -0.1525,1.265 -0.0775,2.9525 -0.007,4.1225 0.055,4.7425 0.1075,4.7975 0.15375,4.26375 0.19375,3.11875 0.2225,1.34125 0.26625,0.3125 0.345,0.25375 0.405,0.17 0.43625,0.0775 3.75375,0.5225 3.78,0.23625 2.86625,0.0512 2.86625,-0.0162 2.865,-0.0675 2.8625,-0.1075 2.86875,-0.14625 2.86375,-0.2025 2.83125,-0.28125 2.84875,-0.42625 -0.095,-0.0687 -0.0763,-0.5625 -0.05,-1.0375 -0.0137,-1.4775 0.02,-1.85875 0.055,-2.16875 0.085,-2.3975 0.24625,-5.1 0.32125,-4.85625 0.1725,-2.10125 0.17125,-1.775 0.165,-1.37625 0.15125,-0.9275 0.13375,-0.44 0.0775,0.015" style="fill:url(#radialGradient16368-1);fill-opacity:1;fill-rule:nonzero;stroke:none" id="path16374" />
    <path inkscape:connector-curvature="0" d="m 399.8525,167.79468 -3.00125,-0.765 -3.00125,-0.61625 -6.0675,-0.9225 -6.085,-0.47125 -6.10625,0.0463 -8.01875,1.00625 -0.4175,0.105 -0.38375,0.18375 -0.35375,0.27375 -0.2825,0.3125 -0.1525,1.265 -0.0775,2.9525 -0.007,4.1225 0.055,4.7425 0.1075,4.7975 0.15375,4.26375 0.19375,3.11875 0.2225,1.34125 0.26625,0.3125 0.345,0.25375 0.405,0.17 0.43625,0.0775 3.75375,0.5225 3.78,0.23625 2.86625,0.0512 2.86625,-0.0162 2.865,-0.0675 2.8625,-0.1075 2.86875,-0.14625 2.86375,-0.2025 2.83125,-0.28125 2.84875,-0.42625 -0.095,-0.0687 -0.0763,-0.5625 -0.05,-1.0375 -0.0137,-1.4775 0.02,-1.85875 0.055,-2.16875 0.085,-2.3975 0.24625,-5.1 0.32125,-4.85625 0.1725,-2.10125 0.17125,-1.775 0.165,-1.37625 0.15125,-0.9275 0.13375,-0.44 0.0775,0.015 z" style="fill:none;stroke:#000000;stroke-width:0.28435624;stroke-linecap:round;stroke-linejoin:round;stroke-miterlimit:10;stroke-opacity:1;stroke-dasharray:none" id="path16376" />
    <path inkscape:connector-curvature="0" d="m 334.90125,199.20218 -0.1125,1.13375 -0.10625,0.79625 -0.0925,0.4125" style="fill:#b8b5af;fill-opacity:1;fill-rule:nonzero;stroke:#000000;stroke-width:0.28435624;stroke-linecap:round;stroke-linejoin:round;stroke-miterlimit:10;stroke-opacity:1;stroke-dasharray:none" id="path16378" />
    <path inkscape:connector-curvature="0" d="m 335.25625,187.57468 0.055,0.0325 0.0663,0.76875 0.005,1.58875" style="fill:#b8b5af;fill-opacity:1;fill-rule:nonzero;stroke:#000000;stroke-width:0.28435624;stroke-linecap:round;stroke-linejoin:round;stroke-miterlimit:10;stroke-opacity:1;stroke-dasharray:none" id="path16380" />
    <path inkscape:connector-curvature="0" d="m 334.44625,199.27468 0.62625,-0.1025 1.425,-0.26125 4.97125,-1.00375 8.17125,-2.03 0.28875,-0.1925 0.12375,-0.32375 -0.0875,-0.3325 -0.26125,-0.22125 -7.895,-2.865 -4.83,-1.51 -1.3825,-0.4075 -0.66,-0.1825 c -0.5075,0.57625 -1.015,1.15125 -1.28375,1.85625 -0.26875,0.705 -0.29875,1.53875 -0.18125,2.57875 0.1175,1.04125 0.38375,2.2875 0.57125,3.155 0.1875,0.86625 0.29625,1.355 0.40375,1.8425 z" style="fill:#b8b5af;fill-opacity:1;fill-rule:nonzero;stroke:#000000;stroke-width:0.28435624;stroke-linecap:round;stroke-linejoin:round;stroke-miterlimit:10;stroke-opacity:1;stroke-dasharray:none" id="path16382" />
    <path inkscape:connector-curvature="0" d="m 300.28625,202.52718 15.115,0.3375 2.5025,0.03 1.25,-0.005 1.87625,-0.0387 2.815,-0.1175 2.8075,-0.1925 1.40125,-0.12375 2.17125,-0.22875 1.4475,-0.1775 2.89875,-0.44125 -0.0563,-0.0275 -0.04,-0.29875 -0.0263,-0.5575 -0.007,-0.79125 0.009,-0.995 0.0763,-2.445 0.13375,-2.73125 0.17,-2.6025 0.18375,-2.07375 0.0875,-0.7375 0.0825,-0.4975 0.085,-0.24625 -2.81125,-0.72125 -1.4175,-0.325 -2.13625,-0.455 -1.38125,-0.2675 -2.775,-0.4825 -2.785,-0.40875 -1.86125,-0.23 -1.24625,-0.13625 -2.49125,-0.22875 -15.0675,-1.23125 c -0.35625,1.3925 -0.71125,2.785 -1.16375,4.7975 -0.45125,2.0125 -1,4.645 -1.18125,6.71 -0.18125,2.065 0.005,3.56375 0.16625,4.68625 0.16,1.1225 0.295,1.87125 0.48625,2.35125 0.19,0.48 0.43625,0.69125 0.6825,0.9025" style="fill:url(#radialGradient16384-3);fill-opacity:1;fill-rule:nonzero;stroke:none" id="path16390" />
    <path inkscape:connector-curvature="0" d="m 300.28625,202.52718 15.115,0.3375 2.5025,0.03 1.25,-0.005 1.87625,-0.0387 2.815,-0.1175 2.8075,-0.1925 1.40125,-0.12375 2.17125,-0.22875 1.4475,-0.1775 2.89875,-0.44125 -0.0563,-0.0275 -0.04,-0.29875 -0.0263,-0.5575 -0.007,-0.79125 0.009,-0.995 0.0763,-2.445 0.13375,-2.73125 0.17,-2.6025 0.18375,-2.07375 0.0875,-0.7375 0.0825,-0.4975 0.085,-0.24625 -2.81125,-0.72125 -1.4175,-0.325 -2.13625,-0.455 -1.38125,-0.2675 -2.775,-0.4825 -2.785,-0.40875 -1.86125,-0.23 -1.24625,-0.13625 -2.49125,-0.22875 -15.0675,-1.23125 c -0.35625,1.3925 -0.71125,2.785 -1.16375,4.7975 -0.45125,2.0125 -1,4.645 -1.18125,6.71 -0.18125,2.065 0.005,3.56375 0.16625,4.68625 0.16,1.1225 0.295,1.87125 0.48625,2.35125 0.19,0.48 0.43625,0.69125 0.6825,0.9025 z" style="fill:none;stroke:#000000;stroke-width:0.28435624;stroke-linecap:round;stroke-linejoin:round;stroke-miterlimit:10;stroke-opacity:1;stroke-dasharray:none" id="path16392" />
    <path inkscape:connector-curvature="0" d="m 300.46125,205.87843 -2.79125,0.45 -2.83125,0.28125 -2.86375,0.2025 -2.87,0.14625 -2.86125,0.10625 -2.865,0.0662 -2.86625,0.0175 -2.86625,-0.0537 -3.78,-0.2325 -3.75375,-0.525 -0.4375,-0.075 -0.405,-0.17 -0.34375,-0.25625 -0.26625,-0.31 -0.2225,-1.3425 -0.19375,-3.12125 -0.15375,-4.26375 -0.1075,-4.7975 -0.055,-4.7425 0.01,-4.11875 0.075,-2.9525 0.1525,-1.26625 0.28125,-0.315 0.355,-0.27125 0.38375,-0.1825 0.42,-0.105 8.01625,-1.00875 6.10625,-0.045 6.085,0.47 6.0675,0.925 3.00125,0.61625 2.9475,0.73125 -0.1575,0.45875 -0.15125,0.9275 -0.165,1.37625 -0.17125,1.775 -0.1725,2.10125 -0.32125,4.85625 -0.25,5.09875 -0.0825,2.395 -0.0538,2.17 -0.02,1.86125 0.0138,1.47625 0.05,1.03875 0.11375,0.6075" style="fill:url(#radialGradient16394-5);fill-opacity:1;fill-rule:nonzero;stroke:none" id="path16400" />
    <path inkscape:connector-curvature="0" d="m 300.46125,205.87843 -2.79125,0.45 -2.83125,0.28125 -2.86375,0.2025 -2.87,0.14625 -2.86125,0.10625 -2.865,0.0662 -2.86625,0.0175 -2.86625,-0.0537 -3.78,-0.2325 -3.75375,-0.525 -0.4375,-0.075 -0.405,-0.17 -0.34375,-0.25625 -0.26625,-0.31 -0.2225,-1.3425 -0.19375,-3.12125 -0.15375,-4.26375 -0.1075,-4.7975 -0.055,-4.7425 0.01,-4.11875 0.075,-2.9525 0.1525,-1.26625 0.28125,-0.315 0.355,-0.27125 0.38375,-0.1825 0.42,-0.105 8.01625,-1.00875 6.10625,-0.045 6.085,0.47 6.0675,0.925 3.00125,0.61625 2.9475,0.73125 -0.1575,0.45875 -0.15125,0.9275 -0.165,1.37625 -0.17125,1.775 -0.1725,2.10125 -0.32125,4.85625 -0.25,5.09875 -0.0825,2.395 -0.0538,2.17 -0.02,1.86125 0.0138,1.47625 0.05,1.03875 0.11375,0.6075 z" style="fill:none;stroke:#000000;stroke-width:0.28435624;stroke-linecap:round;stroke-linejoin:round;stroke-miterlimit:10;stroke-opacity:1;stroke-dasharray:none" id="path16402" />
    <path inkscape:connector-curvature="0" d="m 301.045,202.54218 -0.18375,1.6475 -0.16875,1.12625 -0.14875,0.555 -0.1175,-0.04" style="fill:#b8b5af;fill-opacity:1;fill-rule:nonzero;stroke:#000000;stroke-width:0.28435624;stroke-linecap:round;stroke-linejoin:round;stroke-miterlimit:10;stroke-opacity:1;stroke-dasharray:none" id="path16404" />
    <path inkscape:connector-curvature="0" d="m 301.805,179.75468 0.10625,0.06 0.11125,1.1 0.03,2.2275" style="fill:#b8b5af;fill-opacity:1;fill-rule:nonzero;stroke:#000000;stroke-width:0.28435624;stroke-linecap:round;stroke-linejoin:round;stroke-miterlimit:10;stroke-opacity:1;stroke-dasharray:none" id="path16406" />
    <path inkscape:connector-curvature="0" d="m 790.39125,11.885928 -38.75,99.360002 -24.7425,0.8 -10.915,-6.87875 59.17875,-94.412502 1.9575,1.2275 13.27125,-0.09625 z" style="fill:#4c7dff;fill-opacity:1;fill-rule:nonzero;stroke:#000000;stroke-width:0.28435624;stroke-linecap:round;stroke-linejoin:round;stroke-miterlimit:10;stroke-opacity:1;stroke-dasharray:none" id="path16408" />
    <path inkscape:connector-curvature="0" d="m 786.83625,117.68093 -2.7725,0.32375 -2.77625,0.3225 -2.7725,0.3225 -2.77625,0.295 -2.775,0.2225 -2.7775,0.13625 -1.39125,0.035 -1.38875,0.002 -1.3825,-0.0263 -0.6975,-0.0138 -0.6975,-0.01 -1.40625,-0.0588 -0.69,-0.0775 -0.6875,-0.1125 -0.345,-0.0625 -0.3475,-0.0588 -0.35375,-0.0625 -0.345,-0.0837 -0.34625,-0.11875 -0.35125,-0.1175 -0.34875,-0.13625 -0.21125,-0.14125 -0.14125,-0.2125 0.1375,-0.11875 0.2075,-0.03 0.3475,-0.0325 0.34625,-0.0325 0.34625,-0.035 0.3475,-0.03 0.35,-0.0237 0.69,-0.0512 0.69375,-0.0613 0.69375,-0.06 1.39,-0.115 1.38625,-0.115 1.3875,-0.1075 1.3875,-0.08 1.39125,-0.0575 2.77875,-0.0662 1.38875,0.0113 1.38875,0.0375 2.7825,0.13625 2.77875,0.165 2.7825,0.1475 2.77875,0.15125" style="fill:#a9acac;fill-opacity:1;fill-rule:nonzero;stroke:#000000;stroke-width:0.28435624;stroke-linecap:round;stroke-linejoin:round;stroke-miterlimit:10;stroke-opacity:1;stroke-dasharray:none" id="path16410" />
    <path inkscape:connector-curvature="0" d="m 734.3475,75.867178 5.9125,3.707497 23.79,-0.31375" style="fill:none;stroke:#fff9ff;stroke-width:1.53750002;stroke-linecap:round;stroke-linejoin:round;stroke-miterlimit:10;stroke-opacity:1;stroke-dasharray:none" id="path16412" />
    <path inkscape:connector-curvature="0" d="m 167.23875,135.93343 9.16625,-0.12125" style="fill:none;stroke:#000000;stroke-width:0.28435624;stroke-linecap:round;stroke-linejoin:round;stroke-miterlimit:10;stroke-opacity:1;stroke-dasharray:none" id="path16414" />
    <path inkscape:connector-curvature="0" d="m 165.7875,134.51968 0.01,0.125 0.009,0.0825 0.0212,0.10875 0.0138,0.055 0.0412,0.11875 0.0225,0.0575 0.055,0.11125 0.04,0.0738 0.0613,0.0913 0.035,0.0437 0.0813,0.0937 0.045,0.0462 0.045,0.0438 0.095,0.08 0.045,0.0288 0.065,0.0413 0.03,0.0187 0.0737,0.0413 0.11375,0.0512 0.0588,0.0213 0.12,0.035 0.0525,0.0125 0.0725,0.0138 0.0387,0.005 0.0813,0.01 0.125,0.004" style="fill:none;stroke:#000000;stroke-width:0.28435624;stroke-linecap:round;stroke-linejoin:round;stroke-miterlimit:10;stroke-opacity:1;stroke-dasharray:none" id="path16416" />
    <path inkscape:connector-curvature="0" d="m 176.405,135.81218 0.12375,-0.008 0.0838,-0.0125 0.1075,-0.02 0.0563,-0.015 0.11625,-0.0375 0.06,-0.0225 0.11125,-0.055 0.0737,-0.0425 0.0913,-0.0625 0.0438,-0.0312 0.0962,-0.0813 0.0437,-0.045 0.0413,-0.0475 0.0787,-0.0962 0.0325,-0.045 0.0412,-0.0613 0.0188,-0.03 0.0412,-0.0763 0.0513,-0.11125 0.0213,-0.0588 0.035,-0.12 0.0125,-0.0563 0.0138,-0.0725 0.004,-0.0362 0.0112,-0.0825 0.004,-0.125" style="fill:none;stroke:#000000;stroke-width:0.28435624;stroke-linecap:round;stroke-linejoin:round;stroke-miterlimit:10;stroke-opacity:1;stroke-dasharray:none" id="path16418" />
    <path inkscape:connector-curvature="0" d="m 15.96625,156.55093 0.035,2.5775 0.0587,0.27375 0.15875,0.23125 0.2325,0.15 0.275,0.0512 1.43375,-0.0187 0.27375,-0.0588 0.22875,-0.15625 0.1525,-0.235 0.0512,-0.275 -0.0337,-2.5775 -0.0588,-0.27375 -0.15875,-0.22875 -0.2325,-0.155 -0.27625,-0.0488 -1.4325,0.0188 -0.27375,0.0563 -0.22875,0.16125 -0.1525,0.2325 -0.0525,0.275" style="fill:#2a2724;fill-opacity:1;fill-rule:nonzero;stroke:none" id="path16420" />
    <path inkscape:connector-curvature="0" d="m 27.42375,156.39968 0.0337,2.5775 0.0588,0.27375 0.15875,0.23125 0.235,0.15 0.27375,0.0512 1.4325,-0.0187 0.27375,-0.0588 0.23125,-0.15625 0.15,-0.235 0.0512,-0.275 -0.0337,-2.5775 -0.0588,-0.27375 -0.15625,-0.22875 -0.235,-0.155 -0.275,-0.0487 -1.43375,0.0187 -0.27125,0.0563 -0.23125,0.16125 -0.1525,0.2325 -0.0512,0.275" style="fill:#2a2724;fill-opacity:1;fill-rule:nonzero;stroke:none" id="path16422" />
    <path inkscape:connector-curvature="0" d="m 155.2475,127.98468 -1.4325,0.0188 -0.27625,-0.0513 -0.235,-0.1525 -0.15875,-0.23125 -0.0563,-0.27125 -0.0337,-2.58 0.0487,-0.2725 0.1525,-0.235 0.23125,-0.15875 0.275,-0.0562 1.4325,-0.0187 0.2725,0.0487 0.235,0.1525 0.15875,0.23125 0.0562,0.27125 0.0337,2.58 -0.0487,0.2725 -0.1525,0.235 -0.23125,0.15875 -0.27125,0.0588" style="fill:#2a2724;fill-opacity:1;fill-rule:nonzero;stroke:none" id="path16424" />
    <path inkscape:connector-curvature="0" d="m 23.8875,159.74093 -1.4325,0.0188 -0.2725,-0.0525 -0.235,-0.14875 -0.15875,-0.23125 -0.06,-0.27375 -0.0337,-2.5775 0.0525,-0.275 0.1525,-0.2325 0.23,-0.1625 0.2725,-0.0562 1.4325,-0.0188 0.275,0.0488 0.2325,0.15625 0.15875,0.22875 0.06,0.27375 0.0338,2.57625 -0.0525,0.27625 -0.1525,0.235 -0.2275,0.155 -0.275,0.06" style="fill:#2a2724;fill-opacity:1;fill-rule:nonzero;stroke:none" id="path16426" />
    <path inkscape:connector-curvature="0" d="m 132.33125,128.28718 -1.43,0.0187 -0.275,-0.0512 -0.235,-0.1525 -0.15875,-0.23125 -0.0562,-0.27125 -0.035,-2.58 0.05,-0.2725 0.1525,-0.235 0.23125,-0.15875 0.27375,-0.0563 1.43,-0.0187 0.275,0.0487 0.23625,0.1525 0.155,0.23125 0.06,0.27125 0.0337,2.58 -0.0525,0.2725 -0.14875,0.235 -0.23125,0.15875 -0.275,0.0588" style="fill:#2a2724;fill-opacity:1;fill-rule:nonzero;stroke:none" id="path16428" />
    <path inkscape:connector-curvature="0" d="m 149.51625,128.06093 -1.43,0.0187 -0.275,-0.0525 -0.235,-0.1525 -0.15875,-0.23125 -0.0562,-0.27125 -0.035,-2.57875 0.05,-0.2725 0.1525,-0.23625 0.23,-0.15875 0.275,-0.0562 1.43,-0.0188 0.275,0.05 0.23625,0.15125 0.1575,0.23125 0.0563,0.2725 0.035,2.57875 -0.05,0.2725 -0.15125,0.23625 -0.2325,0.15875 -0.27375,0.0588" style="fill:#2a2724;fill-opacity:1;fill-rule:nonzero;stroke:none" id="path16430" />
    <path inkscape:connector-curvature="0" d="m 138.06,128.21218 -1.4325,0.0188 -0.27375,-0.0525 -0.235,-0.15125 -0.15875,-0.23125 -0.0563,-0.2725 -0.0337,-2.57875 0.0487,-0.2725 0.1525,-0.23625 0.23125,-0.15875 0.27125,-0.0563 1.43375,-0.0187 0.275,0.05 0.2325,0.1525 0.16125,0.23 0.0562,0.2725 0.0338,2.57875 -0.0488,0.2725 -0.155,0.23625 -0.22875,0.15875 -0.27375,0.0588" style="fill:#2a2724;fill-opacity:1;fill-rule:nonzero;stroke:none" id="path16432" />
    <path inkscape:connector-curvature="0" d="m 143.78875,128.13593 -1.43,0.0188 -0.27625,-0.0513 -0.235,-0.1525 -0.15875,-0.23125 -0.0563,-0.27125 -0.0337,-2.58 0.0488,-0.2725 0.1525,-0.235 0.23125,-0.15875 0.27375,-0.0562 1.43,-0.0188 0.27625,0.0487 0.235,0.1525 0.15875,0.23125 0.0563,0.27125 0.0337,2.58 -0.0488,0.2725 -0.1525,0.235 -0.23125,0.15875 -0.27375,0.0588" style="fill:#2a2724;fill-opacity:1;fill-rule:nonzero;stroke:none" id="path16434" />
    <path inkscape:connector-curvature="0" d="m 160.97375,127.90968 -1.43125,0.0188 -0.275,-0.0525 -0.235,-0.1525 -0.15625,-0.23125 -0.0588,-0.27125 -0.0337,-2.57875 0.0513,-0.27375 0.15,-0.235 0.23125,-0.15875 0.27375,-0.0563 1.43,-0.0187 0.275,0.05 0.23625,0.15125 0.15875,0.23125 0.0563,0.27125 0.0337,2.58 -0.0488,0.2725 -0.1525,0.23625 -0.23125,0.15875 -0.27375,0.0587" style="fill:#2a2724;fill-opacity:1;fill-rule:nonzero;stroke:none" id="path16436" />
    <path inkscape:connector-curvature="0" d="m 33.1525,156.32468 0.0337,2.57625 0.0588,0.275 0.15875,0.23125 0.235,0.14875 0.2725,0.0525 1.4325,-0.0188 0.275,-0.06 0.2275,-0.155 0.15625,-0.235 0.0487,-0.27625 -0.0337,-2.57625 -0.0563,-0.275 -0.16125,-0.2275 -0.2325,-0.15625 -0.27625,-0.0488 -1.4325,0.0188 -0.27125,0.0563 -0.23125,0.16125 -0.1525,0.23375 -0.0513,0.275" style="fill:#2a2724;fill-opacity:1;fill-rule:nonzero;stroke:none" id="path16438" />
    <path inkscape:connector-curvature="0" d="m 84.708752,155.64343 0.03375,2.5775 0.06,0.27375 0.15875,0.23125 0.2325,0.15 0.275,0.0512 1.4325,-0.0187 0.27125,-0.0588 0.2325,-0.15625 0.15125,-0.235 0.05,-0.275 -0.035,-2.5775 -0.05625,-0.27375 -0.1575,-0.22875 -0.23625,-0.155 -0.2725,-0.0488 -1.4325,0.0188 -0.275,0.0563 -0.2275,0.16125 -0.1525,0.2325 -0.0525,0.275" style="fill:#2a2724;fill-opacity:1;fill-rule:nonzero;stroke:none" id="path16440" />
    <path inkscape:connector-curvature="0" d="m 38.8825,156.24843 0.0337,2.5775 0.0563,0.27375 0.15875,0.23125 0.235,0.15 0.27625,0.0513 1.43,-0.0188 0.27375,-0.0588 0.23125,-0.15625 0.15,-0.235 0.0525,-0.275 -0.035,-2.5775 -0.0588,-0.27375 -0.155,-0.22875 -0.23625,-0.155 -0.275,-0.0487 -1.43,0.0187 -0.275,0.0563 -0.23125,0.16125 -0.1525,0.2325 -0.0487,0.275" style="fill:#2a2724;fill-opacity:1;fill-rule:nonzero;stroke:none" id="path16442" />
    <path inkscape:connector-curvature="0" d="m 50.340002,156.09718 0.03375,2.5775 0.05625,0.27375 0.15875,0.23125 0.235,0.15 0.275,0.0513 1.43,-0.0188 0.275,-0.0588 0.23125,-0.15625 0.1525,-0.235 0.04875,-0.275 -0.03375,-2.5775 -0.05625,-0.27375 -0.15875,-0.22875 -0.23625,-0.155 -0.275,-0.0487 -1.43,0.0187 -0.27375,0.0563 -0.23125,0.16125 -0.1525,0.2325 -0.04875,0.275" style="fill:#2a2724;fill-opacity:1;fill-rule:nonzero;stroke:none" id="path16444" />
    <path inkscape:connector-curvature="0" d="m 44.607502,156.17343 0.035,2.57625 0.05875,0.275 0.15875,0.23125 0.235,0.14875 0.27375,0.0525 1.4325,-0.0187 0.27375,-0.06 0.23125,-0.155 0.15,-0.235 0.05125,-0.27625 -0.03375,-2.57625 -0.05875,-0.275 -0.15625,-0.2275 -0.235,-0.15625 -0.27625,-0.0488 -1.4325,0.0188 -0.27125,0.0563 -0.23125,0.16125 -0.1525,0.23375 -0.0525,0.275" style="fill:#2a2724;fill-opacity:1;fill-rule:nonzero;stroke:none" id="path16446" />
    <path inkscape:connector-curvature="0" d="m 56.067502,156.02218 0.03375,2.57625 0.05625,0.275 0.15875,0.23125 0.23625,0.14875 0.275,0.0525 1.43,-0.0187 0.27375,-0.06 0.23125,-0.155 0.15,-0.235 0.0525,-0.27625 -0.035,-2.57625 -0.05875,-0.275 -0.15625,-0.2275 -0.235,-0.15625 -0.275,-0.0488 -1.43,0.0188 -0.275,0.0563 -0.23125,0.16125 -0.1525,0.23375 -0.04875,0.275" style="fill:#2a2724;fill-opacity:1;fill-rule:nonzero;stroke:none" id="path16448" />
    <path inkscape:connector-curvature="0" d="m 61.796252,155.94593 0.03375,2.5775 0.05625,0.27375 0.16125,0.23125 0.2325,0.15 0.27625,0.0513 1.4325,-0.0188 0.27125,-0.0588 0.23125,-0.15625 0.1525,-0.235 0.04875,-0.275 -0.03375,-2.5775 -0.05625,-0.27375 -0.15875,-0.22875 -0.235,-0.155 -0.27375,-0.0488 -1.4325,0.0188 -0.27375,0.0562 -0.22875,0.16125 -0.155,0.2325 -0.04875,0.275" style="fill:#2a2724;fill-opacity:1;fill-rule:nonzero;stroke:none" id="path16450" />
    <path inkscape:connector-curvature="0" d="m 67.523752,155.87093 0.03375,2.57625 0.06,0.275 0.15625,0.23125 0.235,0.14875 0.275,0.0525 1.43,-0.0188 0.275,-0.06 0.23125,-0.155 0.15125,-0.235 0.05,-0.27625 -0.03375,-2.5775 -0.0575,-0.27375 -0.1575,-0.2275 -0.23625,-0.15625 -0.275,-0.0487 -1.43,0.0187 -0.275,0.0563 -0.23,0.16125 -0.15,0.23375 -0.0525,0.275" style="fill:#2a2724;fill-opacity:1;fill-rule:nonzero;stroke:none" id="path16452" />
    <path inkscape:connector-curvature="0" d="m 90.437502,155.56843 0.03375,2.57625 0.05875,0.275 0.15875,0.23125 0.2325,0.14875 0.27625,0.0525 1.4325,-0.0188 0.27375,-0.06 0.22875,-0.155 0.1525,-0.235 0.05125,-0.27625 -0.03375,-2.5775 -0.05875,-0.27375 -0.15875,-0.22875 -0.2325,-0.155 -0.275,-0.0487 -1.43375,0.0188 -0.27375,0.0562 -0.22875,0.16125 -0.1525,0.2325 -0.05125,0.27625" style="fill:#2a2724;fill-opacity:1;fill-rule:nonzero;stroke:none" id="path16454" />
    <path inkscape:connector-curvature="0" d="m 73.252502,155.79468 0.03375,2.5775 0.05625,0.27375 0.16125,0.23125 0.2325,0.15 0.27625,0.0513 1.4325,-0.0188 0.27125,-0.0587 0.23125,-0.15625 0.1525,-0.235 0.04875,-0.275 -0.03375,-2.5775 -0.05625,-0.27375 -0.15875,-0.22875 -0.235,-0.155 -0.2725,-0.0488 -1.43375,0.0188 -0.27375,0.0563 -0.22875,0.16125 -0.155,0.2325 -0.04875,0.275" style="fill:#2a2724;fill-opacity:1;fill-rule:nonzero;stroke:none" id="path16456" />
    <path inkscape:connector-curvature="0" d="m 78.981252,155.71968 0.03375,2.57625 0.05875,0.275 0.15875,0.23125 0.2325,0.14875 0.27625,0.0525 1.4325,-0.0188 0.27125,-0.06 0.23125,-0.155 0.1525,-0.235 0.05125,-0.27625 -0.03375,-2.5775 -0.05875,-0.27375 -0.15875,-0.2275 -0.235,-0.15625 -0.27375,-0.0487 -1.4325,0.0187 -0.27375,0.0563 -0.22875,0.16125 -0.1525,0.2325 -0.05125,0.27625" style="fill:#2a2724;fill-opacity:1;fill-rule:nonzero;stroke:none" id="path16458" />
    <path inkscape:connector-curvature="0" d="m 119.65375,155.18218 0.0337,2.5775 0.0563,0.27375 0.15875,0.23125 0.235,0.15 0.27625,0.0512 1.43,-0.0187 0.27375,-0.0588 0.23125,-0.15625 0.1525,-0.235 0.0487,-0.27625 -0.0337,-2.57625 -0.0563,-0.27375 -0.15875,-0.22875 -0.235,-0.155 -0.27625,-0.05 -1.43,0.02 -0.27375,0.0563 -0.23125,0.16125 -0.1525,0.2325 -0.0487,0.275" style="fill:#2a2724;fill-opacity:1;fill-rule:nonzero;stroke:none" id="path16460" />
    <path inkscape:connector-curvature="0" d="m 125.3825,155.10718 0.0338,2.57625 0.0562,0.275 0.15875,0.23 0.235,0.15 0.275,0.0525 1.43,-0.02 0.275,-0.0587 0.23125,-0.155 0.15125,-0.23625 0.05,-0.275 -0.0337,-2.5775 -0.0575,-0.27375 -0.1575,-0.22875 -0.23625,-0.155 -0.275,-0.0488 -1.43,0.0188 -0.27375,0.0563 -0.23125,0.16125 -0.1525,0.2325 -0.0488,0.27625" style="fill:#2a2724;fill-opacity:1;fill-rule:nonzero;stroke:none" id="path16462" />
    <path inkscape:connector-curvature="0" d="m 131.11,155.03093 0.0337,2.5775 0.0575,0.27375 0.1575,0.23125 0.23625,0.15 0.275,0.0513 1.4325,-0.0188 0.27125,-0.0588 0.23125,-0.15625 0.1525,-0.235 0.0487,-0.27625 -0.0337,-2.57625 -0.0563,-0.27375 -0.15875,-0.22875 -0.235,-0.155 -0.2725,-0.05 -1.4325,0.02 -0.275,0.0563 -0.23125,0.16125 -0.1525,0.2325 -0.0487,0.275" style="fill:#2a2724;fill-opacity:1;fill-rule:nonzero;stroke:none" id="path16464" />
    <path inkscape:connector-curvature="0" d="m 136.83875,154.95593 0.0337,2.57625 0.0588,0.27375 0.15625,0.23125 0.235,0.15 0.27625,0.0525 1.43,-0.02 0.27375,-0.0588 0.23125,-0.15625 0.1525,-0.235 0.0488,-0.275 -0.0338,-2.5775 -0.0562,-0.27375 -0.15875,-0.22875 -0.235,-0.155 -0.27625,-0.0488 -1.43,0.0188 -0.27375,0.0563 -0.23125,0.16125 -0.15,0.2325 -0.0512,0.27625" style="fill:#2a2724;fill-opacity:1;fill-rule:nonzero;stroke:none" id="path16466" />
    <path inkscape:connector-curvature="0" d="m 142.56625,154.87968 0.035,2.5775 0.0563,0.27375 0.16125,0.23125 0.2325,0.15 0.275,0.0513 1.43375,-0.0188 0.27125,-0.0588 0.23125,-0.15625 0.1525,-0.235 0.0488,-0.27625 -0.035,-2.57625 -0.0563,-0.27375 -0.1575,-0.22875 -0.23625,-0.155 -0.2725,-0.05 -1.4325,0.02 -0.27375,0.0562 -0.22875,0.16125 -0.155,0.2325 -0.05,0.275" style="fill:#2a2724;fill-opacity:1;fill-rule:nonzero;stroke:none" id="path16468" />
    <path inkscape:connector-curvature="0" d="m 148.295,154.80468 0.0338,2.57625 0.06,0.27375 0.1575,0.23125 0.2325,0.15 0.27625,0.0525 1.4325,-0.02 0.27125,-0.0588 0.23125,-0.155 0.1525,-0.23625 0.0525,-0.275 -0.035,-2.5775 -0.0588,-0.27375 -0.15875,-0.22875 -0.235,-0.155 -0.2725,-0.0488 -1.4325,0.0188 -0.275,0.0563 -0.2275,0.16125 -0.1525,0.2325 -0.0525,0.27625" style="fill:#2a2724;fill-opacity:1;fill-rule:nonzero;stroke:none" id="path16470" />
    <path inkscape:connector-curvature="0" d="m 159.75125,154.65218 0.0337,2.5775 0.06,0.27375 0.15875,0.23125 0.2325,0.15 0.275,0.0513 1.4325,-0.0188 0.275,-0.0588 0.2275,-0.15625 0.1525,-0.235 0.0525,-0.275 -0.0337,-2.5775 -0.06,-0.27375 -0.15875,-0.22875 -0.23125,-0.155 -0.27625,-0.0487 -1.4325,0.0187 -0.275,0.0563 -0.2275,0.16125 -0.1525,0.2325 -0.0525,0.275" style="fill:#2a2724;fill-opacity:1;fill-rule:nonzero;stroke:none" id="path16472" />
    <path inkscape:connector-curvature="0" d="m 154.02375,154.72843 0.0337,2.5775 0.0588,0.27375 0.15875,0.23125 0.2325,0.14875 0.275,0.0525 1.43375,-0.0188 0.27125,-0.0588 0.23125,-0.15625 0.1525,-0.235 0.0487,-0.27625 -0.0337,-2.57625 -0.0562,-0.27375 -0.15875,-0.22875 -0.235,-0.155 -0.27375,-0.05 -1.4325,0.0188 -0.27375,0.0575 -0.22875,0.16125 -0.1525,0.2325 -0.0512,0.275" style="fill:#2a2724;fill-opacity:1;fill-rule:nonzero;stroke:none" id="path16474" />
    <path inkscape:connector-curvature="0" d="m 165.48,154.57718 0.0337,2.5775 0.0588,0.27375 0.15875,0.23125 0.2325,0.15 0.27625,0.0513 1.4325,-0.0187 0.27375,-0.0588 0.22875,-0.15625 0.1525,-0.235 0.0525,-0.27625 -0.035,-2.57625 -0.0588,-0.27375 -0.15875,-0.22875 -0.2325,-0.155 -0.27625,-0.05 -1.4325,0.0188 -0.27375,0.0563 -0.22875,0.1625 -0.1525,0.2325 -0.0513,0.275" style="fill:#2a2724;fill-opacity:1;fill-rule:nonzero;stroke:none" id="path16476" />
    <path inkscape:connector-curvature="0" d="m 171.2075,154.50093 0.035,2.5775 0.0588,0.27375 0.15875,0.23125 0.2325,0.15 0.275,0.0513 1.43375,-0.0188 0.27375,-0.0588 0.22875,-0.15625 0.1525,-0.235 0.0512,-0.275 -0.0337,-2.5775 -0.06,-0.27375 -0.1575,-0.22875 -0.2325,-0.155 -0.27625,-0.0487 -1.4325,0.0187 -0.27375,0.0563 -0.22875,0.16125 -0.1525,0.2325 -0.0525,0.275" style="fill:#2a2724;fill-opacity:1;fill-rule:nonzero;stroke:none" id="path16478" />
    <path inkscape:connector-curvature="0" d="m 176.93625,154.42593 0.0337,2.5775 0.06,0.27375 0.15875,0.23125 0.2325,0.14875 0.275,0.0525 1.4325,-0.0187 0.27375,-0.0588 0.22875,-0.15625 0.1525,-0.235 0.0525,-0.27625 -0.0337,-2.57625 -0.06,-0.27375 -0.15875,-0.22875 -0.2325,-0.155 -0.275,-0.05 -1.4325,0.0188 -0.275,0.0563 -0.2275,0.1625 -0.1525,0.2325 -0.0525,0.275" style="fill:#2a2724;fill-opacity:1;fill-rule:nonzero;stroke:none" id="path16480" />
    <path inkscape:connector-curvature="0" d="m 182.665,154.34968 0.0337,2.5775 0.0588,0.27375 0.15875,0.23125 0.235,0.15 0.27375,0.0513 1.4325,-0.0188 0.27375,-0.0588 0.22875,-0.15625 0.1525,-0.235 0.0513,-0.275 -0.0337,-2.5775 -0.0588,-0.27375 -0.15875,-0.22875 -0.2325,-0.155 -0.275,-0.0488 -1.43375,0.0188 -0.27125,0.0562 -0.23125,0.16125 -0.1525,0.2325 -0.0513,0.275" style="fill:#2a2724;fill-opacity:1;fill-rule:nonzero;stroke:none" id="path16482" />
    <path inkscape:connector-curvature="0" d="m 188.3925,154.27468 0.035,2.5775 0.0588,0.27375 0.15875,0.23125 0.2325,0.14875 0.275,0.0525 1.4325,-0.0187 0.275,-0.0588 0.22875,-0.15625 0.1525,-0.235 0.0512,-0.27625 -0.0337,-2.57625 -0.0588,-0.275 -0.15875,-0.2275 -0.2325,-0.15625 -0.27625,-0.0487 -1.4325,0.0187 -0.27375,0.0563 -0.22875,0.1625 -0.1525,0.2325 -0.0525,0.275" style="fill:#2a2724;fill-opacity:1;fill-rule:nonzero;stroke:none" id="path16484" />
    <path inkscape:connector-curvature="0" d="m 194.12375,154.19843 0.0337,2.5775 0.0575,0.27375 0.15875,0.23125 0.235,0.15 0.2725,0.0513 1.4325,-0.0188 0.275,-0.0587 0.2275,-0.15625 0.155,-0.235 0.05,-0.275 -0.035,-2.5775 -0.0563,-0.27375 -0.16125,-0.22875 -0.2325,-0.155 -0.275,-0.0488 -1.4325,0.0188 -0.2725,0.0563 -0.23,0.16125 -0.1525,0.2325 -0.05,0.275" style="fill:#2a2724;fill-opacity:1;fill-rule:nonzero;stroke:none" id="path16486" />
    <path inkscape:connector-curvature="0" d="m 222.765,153.82093 0.035,2.57625 0.0562,0.275 0.15875,0.23125 0.235,0.14875 0.275,0.0525 1.43,-0.0188 0.275,-0.06 0.23,-0.155 0.1525,-0.235 0.05,-0.27625 -0.0337,-2.57625 -0.0575,-0.275 -0.1575,-0.2275 -0.23625,-0.15625 -0.275,-0.0488 -1.43,0.0188 -0.275,0.0562 -0.23,0.16125 -0.1525,0.23375 -0.05,0.275" style="fill:#2a2724;fill-opacity:1;fill-rule:nonzero;stroke:none" id="path16488" />
    <path inkscape:connector-curvature="0" d="m 228.49375,153.74468 0.0337,2.5775 0.0588,0.27375 0.15625,0.23125 0.235,0.15 0.27625,0.0512 1.43,-0.0187 0.27375,-0.0588 0.23125,-0.15625 0.1525,-0.235 0.0487,-0.275 -0.0337,-2.5775 -0.0562,-0.27375 -0.15875,-0.22875 -0.235,-0.155 -0.275,-0.0487 -1.43,0.0187 -0.275,0.0563 -0.23125,0.16125 -0.15,0.2325 -0.0512,0.275" style="fill:#2a2724;fill-opacity:1;fill-rule:nonzero;stroke:none" id="path16490" />
    <path inkscape:connector-curvature="0" d="m 234.22125,153.66968 0.035,2.57625 0.0563,0.275 0.16125,0.23125 0.2325,0.14875 0.27625,0.0525 1.4325,-0.0188 0.27125,-0.06 0.23125,-0.155 0.1525,-0.235 0.0488,-0.27625 -0.0337,-2.57625 -0.0563,-0.275 -0.15875,-0.2275 -0.235,-0.15625 -0.27375,-0.0488 -1.4325,0.0188 -0.27375,0.0563 -0.22875,0.16125 -0.155,0.23375 -0.05,0.275" style="fill:#2a2724;fill-opacity:1;fill-rule:nonzero;stroke:none" id="path16492" />
    <path inkscape:connector-curvature="0" d="m 239.95,153.59343 0.0337,2.5775 0.06,0.27375 0.155,0.23125 0.23625,0.15 0.275,0.0513 1.43,-0.0188 0.275,-0.0588 0.23,-0.15625 0.1525,-0.235 0.0525,-0.275 -0.0337,-2.5775 -0.06,-0.27375 -0.1575,-0.22875 -0.23625,-0.155 -0.275,-0.0487 -1.43,0.0187 -0.275,0.0563 -0.23125,0.16125 -0.14875,0.2325 -0.0525,0.275" style="fill:#2a2724;fill-opacity:1;fill-rule:nonzero;stroke:none" id="path16494" />
    <path inkscape:connector-curvature="0" d="m 245.67875,153.51843 0.0337,2.57625 0.0588,0.275 0.15875,0.23125 0.2325,0.14875 0.27625,0.0525 1.4325,-0.0187 0.27125,-0.06 0.23125,-0.155 0.1525,-0.235 0.0487,-0.27625 -0.0337,-2.57625 -0.0562,-0.275 -0.15875,-0.2275 -0.235,-0.15625 -0.2725,-0.0488 -1.43375,0.0188 -0.27375,0.0563 -0.22875,0.16125 -0.1525,0.2325 -0.0512,0.27625" style="fill:#2a2724;fill-opacity:1;fill-rule:nonzero;stroke:none" id="path16496" />
    <path inkscape:connector-curvature="0" d="m 251.4075,153.44218 0.0337,2.5775 0.0588,0.27375 0.15875,0.23125 0.2325,0.15 0.275,0.0513 1.43375,-0.0188 0.27375,-0.0588 0.22875,-0.15625 0.1525,-0.235 0.0513,-0.275 -0.0337,-2.5775 -0.0588,-0.27375 -0.15875,-0.22875 -0.2325,-0.155 -0.27625,-0.0487 -1.4325,0.0188 -0.27375,0.0562 -0.22875,0.16125 -0.1525,0.2325 -0.0513,0.275" style="fill:#2a2724;fill-opacity:1;fill-rule:nonzero;stroke:none" id="path16498" />
    <path inkscape:connector-curvature="0" d="m 257.135,153.36718 0.0337,2.57625 0.06,0.275 0.15875,0.23 0.2325,0.15 0.275,0.0525 1.4325,-0.0187 0.27125,-0.06 0.23125,-0.155 0.1525,-0.235 0.0525,-0.27625 -0.0337,-2.5775 -0.06,-0.27375 -0.15875,-0.2275 -0.235,-0.15625 -0.2725,-0.0488 -1.4325,0.0188 -0.275,0.0563 -0.2275,0.16125 -0.1525,0.2325 -0.0525,0.27625" style="fill:#2a2724;fill-opacity:1;fill-rule:nonzero;stroke:none" id="path16500" />
    <path inkscape:connector-curvature="0" d="m 262.86375,153.29093 0.0337,2.5775 0.0588,0.27375 0.15875,0.23125 0.2325,0.15 0.27625,0.0513 1.4325,-0.0188 0.27375,-0.0588 0.22875,-0.15625 0.1525,-0.235 0.0512,-0.275 -0.0337,-2.5775 -0.0587,-0.27375 -0.15875,-0.22875 -0.2325,-0.155 -0.27625,-0.0488 -1.4325,0.0188 -0.27375,0.0562 -0.22875,0.16125 -0.1525,0.2325 -0.0513,0.275" style="fill:#2a2724;fill-opacity:1;fill-rule:nonzero;stroke:none" id="path16502" />
    <path inkscape:connector-curvature="0" d="m 268.59125,153.21593 0.035,2.57625 0.0587,0.275 0.15875,0.23 0.2325,0.15 0.275,0.0525 1.43375,-0.0188 0.27375,-0.06 0.22875,-0.155 0.15125,-0.235 0.0525,-0.27625 -0.0337,-2.5775 -0.06,-0.27375 -0.1575,-0.22875 -0.2325,-0.155 -0.27625,-0.0487 -1.4325,0.0187 -0.27375,0.0563 -0.22875,0.16125 -0.1525,0.2325 -0.0525,0.27625" style="fill:#2a2724;fill-opacity:1;fill-rule:nonzero;stroke:none" id="path16504" />
    <path inkscape:connector-curvature="0" d="m 274.32,153.13968 0.0337,2.5775 0.06,0.27375 0.1575,0.23125 0.23625,0.15 0.2725,0.0513 1.4325,-0.0187 0.27375,-0.0588 0.22875,-0.15625 0.1525,-0.235 0.0525,-0.275 -0.0338,-2.5775 -0.06,-0.27375 -0.15875,-0.22875 -0.2325,-0.155 -0.275,-0.0488 -1.4325,0.0188 -0.2725,0.0563 -0.23,0.16125 -0.1525,0.2325 -0.0525,0.275" style="fill:#2a2724;fill-opacity:1;fill-rule:nonzero;stroke:none" id="path16506" />
    <path inkscape:connector-curvature="0" d="m 280.04875,153.06468 0.0337,2.57625 0.0588,0.275 0.15875,0.23 0.2325,0.15 0.27625,0.0525 1.4325,-0.0188 0.27375,-0.06 0.22875,-0.155 0.1525,-0.23625 0.0512,-0.275 -0.0337,-2.5775 -0.0587,-0.27375 -0.15875,-0.22875 -0.2325,-0.155 -0.27625,-0.0487 -1.4325,0.0187 -0.27375,0.0563 -0.22875,0.16125 -0.1525,0.2325 -0.0513,0.27625" style="fill:#2a2724;fill-opacity:1;fill-rule:nonzero;stroke:none" id="path16508" />
    <path inkscape:connector-curvature="0" d="m 285.78,152.98843 0.0338,2.5775 0.0562,0.27375 0.15875,0.23125 0.235,0.15 0.2725,0.0512 1.4325,-0.0187 0.275,-0.0588 0.22875,-0.15625 0.1525,-0.235 0.0512,-0.27625 -0.0337,-2.57625 -0.0587,-0.27375 -0.15875,-0.22875 -0.2325,-0.155 -0.27625,-0.0488 -1.4325,0.0188 -0.27125,0.0563 -0.23125,0.16125 -0.1525,0.2325 -0.0488,0.275" style="fill:#2a2724;fill-opacity:1;fill-rule:nonzero;stroke:none" id="path16510" />
    <path inkscape:connector-curvature="0" d="m 109.41875,128.58968 -1.4325,0.02 -0.27625,-0.0525 -0.2325,-0.1525 -0.15875,-0.23125 -0.0587,-0.27125 -0.0338,-2.58 0.0513,-0.2725 0.1525,-0.235 0.22875,-0.15875 0.27375,-0.0562 1.4325,-0.0188 0.27625,0.0487 0.2325,0.1525 0.15875,0.23125 0.0588,0.27125 0.0337,2.58 -0.0512,0.2725 -0.1525,0.235 -0.22875,0.15875 -0.27375,0.0587" style="fill:#2a2724;fill-opacity:1;fill-rule:nonzero;stroke:none" id="path16512" />
    <path inkscape:connector-curvature="0" d="m 115.14625,128.51468 -1.4325,0.0188 -0.2725,-0.0513 -0.235,-0.1525 -0.15875,-0.23125 -0.0563,-0.2725 -0.0337,-2.57875 0.0487,-0.2725 0.1525,-0.23625 0.23125,-0.15875 0.27125,-0.0562 1.4325,-0.0188 0.275,0.05 0.23375,0.1525 0.1575,0.23125 0.06,0.27125 0.0338,2.57875 -0.0525,0.2725 -0.1525,0.23625 -0.2275,0.15875 -0.275,0.0588" style="fill:#2a2724;fill-opacity:1;fill-rule:nonzero;stroke:none" id="path16514" />
    <path inkscape:connector-curvature="0" d="m 120.875,128.43843 -1.4325,0.0187 -0.27625,-0.0512 -0.2325,-0.1525 -0.1575,-0.23125 -0.06,-0.27125 -0.0337,-2.58 0.0525,-0.2725 0.15125,-0.235 0.22875,-0.15875 0.27375,-0.0562 1.43375,-0.0187 0.275,0.0487 0.2325,0.1525 0.15875,0.23125 0.0588,0.27125 0.035,2.58 -0.0525,0.2725 -0.1525,0.235 -0.22875,0.15875 -0.27375,0.0588" style="fill:#2a2724;fill-opacity:1;fill-rule:nonzero;stroke:none" id="path16516" />
    <path inkscape:connector-curvature="0" d="m 126.60375,128.36343 -1.4325,0.0188 -0.27375,-0.0513 -0.235,-0.1525 -0.15875,-0.23125 -0.0562,-0.2725 -0.0338,-2.57875 0.0488,-0.2725 0.1525,-0.23625 0.23125,-0.1575 0.27125,-0.0575 1.4325,-0.0187 0.27625,0.05 0.2325,0.1525 0.16125,0.23 0.0563,0.2725 0.0337,2.57875 -0.0487,0.2725 -0.155,0.23625 -0.22875,0.15875 -0.27375,0.0588" style="fill:#2a2724;fill-opacity:1;fill-rule:nonzero;stroke:none" id="path16518" />
    <path inkscape:connector-curvature="0" d="m 181.73,126.91843 0.06,0.27125 0.1575,0.23125 0.2325,0.1525 0.27625,0.0525 1.4325,-0.0187 0.27375,-0.06 0.22875,-0.1575 0.1525,-0.23625 0.0525,-0.2725 -0.0337,-2.58 -0.06,-0.27125 -0.15875,-0.23125 -0.2325,-0.1525 -0.275,-0.0488 -1.4325,0.0188 -0.275,0.0562 -0.2275,0.15875 -0.1525,0.235 -0.0525,0.27375 0.0337,2.57875" style="fill:#2a2724;fill-opacity:1;fill-rule:nonzero;stroke:none" id="path16520" />
    <path inkscape:connector-curvature="0" d="m 189.6175,127.53093 -1.4325,0.0187 -0.27625,-0.0512 -0.235,-0.1525 -0.15625,-0.23125 -0.0588,-0.27125 -0.0337,-2.58 0.0512,-0.2725 0.15,-0.235 0.23125,-0.15875 0.27375,-0.0562 1.4325,-0.0187 0.27375,0.0487 0.235,0.1525 0.15875,0.23125 0.0588,0.27125 0.0337,2.57875 -0.0512,0.27375 -0.1525,0.235 -0.23125,0.15875 -0.27125,0.0588" style="fill:#2a2724;fill-opacity:1;fill-rule:nonzero;stroke:none" id="path16522" />
    <path inkscape:connector-curvature="0" d="m 195.345,127.45593 -1.4325,0.0188 -0.275,-0.0525 -0.2325,-0.1525 -0.15875,-0.23125 -0.0588,-0.27125 -0.035,-2.57875 0.0525,-0.27375 0.1525,-0.235 0.2275,-0.15875 0.275,-0.0563 1.4325,-0.0187 0.2725,0.0487 0.23625,0.1525 0.1575,0.23125 0.06,0.27125 0.0337,2.58 -0.0525,0.2725 -0.15125,0.23625 -0.2325,0.1575 -0.27125,0.06" style="fill:#2a2724;fill-opacity:1;fill-rule:nonzero;stroke:none" id="path16524" />
    <path inkscape:connector-curvature="0" d="m 201.07375,127.37968 -1.4325,0.0188 -0.27625,-0.0513 -0.2325,-0.1525 -0.15875,-0.23125 -0.0588,-0.27125 -0.0337,-2.58 0.0513,-0.2725 0.1525,-0.235 0.22875,-0.15875 0.275,-0.0563 1.4325,-0.02 0.275,0.05 0.2325,0.1525 0.15875,0.23125 0.0588,0.27125 0.0337,2.57875 -0.0513,0.27375 -0.1525,0.235 -0.22875,0.15875 -0.27375,0.0587" style="fill:#2a2724;fill-opacity:1;fill-rule:nonzero;stroke:none" id="path16526" />
    <path inkscape:connector-curvature="0" d="m 206.8025,127.30468 -1.43375,0.0187 -0.2725,-0.0525 -0.235,-0.1525 -0.15875,-0.23125 -0.0587,-0.27125 -0.0337,-2.57875 0.0512,-0.27375 0.1525,-0.235 0.23125,-0.15875 0.27125,-0.0563 1.4325,-0.0187 0.27375,0.0487 0.235,0.1525 0.15875,0.23125 0.0588,0.27125 0.0337,2.58 -0.0512,0.2725 -0.1525,0.23625 -0.23125,0.1575 -0.27125,0.06" style="fill:#2a2724;fill-opacity:1;fill-rule:nonzero;stroke:none" id="path16528" />
    <path inkscape:connector-curvature="0" d="m 212.53,127.22843 -1.4325,0.0187 -0.275,-0.0512 -0.2325,-0.1525 -0.15875,-0.23125 -0.06,-0.27125 -0.0337,-2.58 0.0525,-0.2725 0.1525,-0.235 0.2275,-0.15875 0.275,-0.0563 1.4325,-0.02 0.275,0.05 0.2325,0.1525 0.15875,0.23125 0.06,0.27125 0.0337,2.57875 -0.0525,0.27375 -0.1525,0.235 -0.2275,0.15875 -0.275,0.0588" style="fill:#2a2724;fill-opacity:1;fill-rule:nonzero;stroke:none" id="path16530" />
    <path inkscape:connector-curvature="0" d="m 218.25875,127.15343 -1.4325,0.0187 -0.27375,-0.0525 -0.235,-0.1525 -0.15875,-0.23125 -0.0563,-0.27125 -0.0337,-2.57875 0.0488,-0.27375 0.1525,-0.235 0.23125,-0.15875 0.27125,-0.0562 1.43375,-0.0188 0.275,0.0487 0.2325,0.1525 0.15875,0.23125 0.0588,0.27125 0.035,2.58 -0.0525,0.2725 -0.1525,0.23625 -0.22875,0.1575 -0.27375,0.06" style="fill:#2a2724;fill-opacity:1;fill-rule:nonzero;stroke:none" id="path16532" />
    <path inkscape:connector-curvature="0" d="m 223.9875,127.07718 -1.43125,0.0187 -0.275,-0.0512 -0.235,-0.1525 -0.15875,-0.23125 -0.0587,-0.27125 -0.035,-2.58 0.0525,-0.2725 0.1525,-0.235 0.23125,-0.15875 0.27375,-0.0562 1.43,-0.02 0.27625,0.05 0.235,0.1525 0.15625,0.23125 0.0588,0.27125 0.0337,2.57875 -0.0512,0.27375 -0.15,0.235 -0.23125,0.15875 -0.27375,0.0588" style="fill:#2a2724;fill-opacity:1;fill-rule:nonzero;stroke:none" id="path16534" />
    <path inkscape:connector-curvature="0" d="m 229.715,127.00218 -1.4325,0.0188 -0.2725,-0.0525 -0.235,-0.1525 -0.15875,-0.23125 -0.0575,-0.27125 -0.0337,-2.57875 0.05,-0.27375 0.1525,-0.235 0.23125,-0.15875 0.27125,-0.0562 1.4325,-0.0187 0.275,0.0487 0.2325,0.1525 0.16125,0.23125 0.0575,0.27125 0.0338,2.58 -0.05,0.2725 -0.155,0.23625 -0.22875,0.1575 -0.27375,0.06" style="fill:#2a2724;fill-opacity:1;fill-rule:nonzero;stroke:none" id="path16536" />
    <path inkscape:connector-curvature="0" d="m 235.44375,126.92593 -1.43,0.0188 -0.27625,-0.0513 -0.235,-0.1525 -0.15875,-0.23125 -0.0563,-0.27125 -0.0337,-2.58 0.0488,-0.2725 0.1525,-0.235 0.23125,-0.15875 0.27375,-0.0575 1.43125,-0.0187 0.275,0.05 0.235,0.1525 0.15625,0.23125 0.0588,0.27125 0.0337,2.57875 -0.0513,0.27375 -0.15,0.235 -0.23125,0.15875 -0.27375,0.0587" style="fill:#2a2724;fill-opacity:1;fill-rule:nonzero;stroke:none" id="path16538" />
    <path inkscape:connector-curvature="0" d="m 241.17125,126.85093 -1.42875,0.0187 -0.27625,-0.0525 -0.235,-0.1525 -0.15875,-0.23125 -0.0562,-0.27125 -0.035,-2.58 0.05,-0.2725 0.1525,-0.235 0.23125,-0.15875 0.27375,-0.0563 1.43,-0.0187 0.27625,0.0487 0.235,0.1525 0.15875,0.23125 0.0563,0.27125 0.0337,2.58 -0.0487,0.2725 -0.1525,0.235 -0.23125,0.15875 -0.275,0.06" style="fill:#2a2724;fill-opacity:1;fill-rule:nonzero;stroke:none" id="path16540" />
    <path inkscape:connector-curvature="0" d="m 588.8125,148.98718 0.0338,2.57625 0.0587,0.275 0.15875,0.23125 0.23375,0.14875 0.275,0.0525 1.4325,-0.0187 0.27375,-0.06 0.22875,-0.155 0.1525,-0.235 0.0525,-0.27625 -0.035,-2.57625 -0.0588,-0.27375 -0.15875,-0.22875 -0.2325,-0.15625 -0.275,-0.0488 -1.4325,0.0188 -0.275,0.0563 -0.22875,0.16125 -0.1525,0.23375 -0.0512,0.275" style="fill:#2a2724;fill-opacity:1;fill-rule:nonzero;stroke:none" id="path16542" />
    <path inkscape:connector-curvature="0" d="m 542.98625,149.59218 0.0337,2.5775 0.0562,0.27375 0.15875,0.23125 0.235,0.15 0.27625,0.0513 1.4325,-0.0188 0.27125,-0.0588 0.23125,-0.15625 0.1525,-0.235 0.05,-0.27625 -0.035,-2.57625 -0.0562,-0.27375 -0.15875,-0.22875 -0.235,-0.155 -0.2725,-0.05 -1.4325,0.02 -0.275,0.0563 -0.23125,0.16125 -0.1525,0.2325 -0.0487,0.275" style="fill:#2a2724;fill-opacity:1;fill-rule:nonzero;stroke:none" id="path16544" />
    <path inkscape:connector-curvature="0" d="m 548.715,149.51718 0.0337,2.57625 0.0588,0.27375 0.15625,0.23125 0.235,0.15 0.275,0.0512 1.43125,-0.0187 0.27375,-0.0588 0.23125,-0.15625 0.1525,-0.235 0.0488,-0.275 -0.0338,-2.5775 -0.0562,-0.27375 -0.15875,-0.22875 -0.235,-0.155 -0.27625,-0.0488 -1.43,0.0188 -0.27375,0.0563 -0.23125,0.16125 -0.15,0.2325 -0.0512,0.27625" style="fill:#2a2724;fill-opacity:1;fill-rule:nonzero;stroke:none" id="path16546" />
    <path inkscape:connector-curvature="0" d="m 565.89875,149.28968 0.035,2.5775 0.0587,0.27375 0.15875,0.23125 0.2325,0.14875 0.275,0.0525 1.43375,-0.0188 0.27125,-0.0588 0.23125,-0.15625 0.1525,-0.235 0.0513,-0.27625 -0.0338,-2.57625 -0.0588,-0.27375 -0.15875,-0.22875 -0.235,-0.155 -0.27375,-0.05 -1.4325,0.0188 -0.27375,0.0575 -0.22875,0.16125 -0.1525,0.2325 -0.0525,0.275" style="fill:#2a2724;fill-opacity:1;fill-rule:nonzero;stroke:none" id="path16548" />
    <path inkscape:connector-curvature="0" d="m 571.6275,149.21343 0.0337,2.5775 0.06,0.27375 0.15875,0.23125 0.23125,0.15 0.27625,0.0512 1.4325,-0.0187 0.275,-0.0588 0.2275,-0.15625 0.1525,-0.235 0.0525,-0.275 -0.0338,-2.5775 -0.06,-0.27375 -0.15875,-0.22875 -0.2325,-0.155 -0.275,-0.0487 -1.4325,0.0187 -0.275,0.0563 -0.2275,0.16125 -0.1525,0.2325 -0.0525,0.275" style="fill:#2a2724;fill-opacity:1;fill-rule:nonzero;stroke:none" id="path16550" />
    <path inkscape:connector-curvature="0" d="m 583.08375,149.06218 0.035,2.5775 0.0588,0.27375 0.15875,0.23125 0.2325,0.15 0.275,0.0513 1.4325,-0.0188 0.275,-0.0588 0.22875,-0.15625 0.15125,-0.235 0.0525,-0.275 -0.0337,-2.5775 -0.06,-0.27375 -0.1575,-0.22875 -0.2325,-0.155 -0.27625,-0.0487 -1.4325,0.0187 -0.27375,0.0563 -0.22875,0.16125 -0.1525,0.2325 -0.0525,0.275" style="fill:#2a2724;fill-opacity:1;fill-rule:nonzero;stroke:none" id="path16552" />
    <path inkscape:connector-curvature="0" d="m 554.4425,149.44093 0.0338,2.5775 0.0575,0.27375 0.16125,0.23125 0.2325,0.15 0.275,0.0513 1.4325,-0.0188 0.2725,-0.0588 0.23,-0.15625 0.1525,-0.235 0.05,-0.27625 -0.0338,-2.57625 -0.0575,-0.27375 -0.1575,-0.22875 -0.23625,-0.155 -0.2725,-0.05 -1.4325,0.0187 -0.275,0.0563 -0.2275,0.1625 -0.155,0.2325 -0.05,0.275" style="fill:#2a2724;fill-opacity:1;fill-rule:nonzero;stroke:none" id="path16554" />
    <path inkscape:connector-curvature="0" d="m 560.17125,149.36468 0.0338,2.5775 0.0587,0.27375 0.15875,0.23125 0.2325,0.15 0.27625,0.0512 1.4325,-0.0187 0.27375,-0.0588 0.22875,-0.15625 0.1525,-0.235 0.0525,-0.275 -0.035,-2.5775 -0.0588,-0.27375 -0.15875,-0.22875 -0.2325,-0.155 -0.275,-0.0488 -1.43375,0.0188 -0.27375,0.0563 -0.22875,0.16125 -0.1525,0.2325 -0.0512,0.275" style="fill:#2a2724;fill-opacity:1;fill-rule:nonzero;stroke:none" id="path16556" />
    <path inkscape:connector-curvature="0" d="m 594.54125,148.91093 0.0338,2.5775 0.0587,0.27375 0.15875,0.23125 0.235,0.15 0.27375,0.0513 1.4325,-0.0188 0.27375,-0.0588 0.22875,-0.15625 0.1525,-0.235 0.0513,-0.275 -0.0338,-2.5775 -0.0588,-0.27375 -0.15875,-0.22875 -0.2325,-0.155 -0.27625,-0.0487 -1.4325,0.0188 -0.27125,0.0562 -0.23125,0.16125 -0.1525,0.2325 -0.0512,0.275" style="fill:#2a2724;fill-opacity:1;fill-rule:nonzero;stroke:none" id="path16558" />
    <path inkscape:connector-curvature="0" d="m 577.35625,149.13843 0.0337,2.5775 0.0588,0.27375 0.15875,0.23125 0.2325,0.14875 0.27625,0.0525 1.4325,-0.0188 0.27375,-0.06 0.22875,-0.155 0.1525,-0.235 0.0512,-0.27625 -0.0337,-2.57625 -0.0588,-0.27375 -0.15875,-0.22875 -0.2325,-0.155 -0.275,-0.05 -1.43375,0.0188 -0.27375,0.0563 -0.22875,0.1625 -0.1525,0.2325 -0.0512,0.275" style="fill:#2a2724;fill-opacity:1;fill-rule:nonzero;stroke:none" id="path16560" />
    <path inkscape:connector-curvature="0" d="m 600.26875,148.83593 0.0338,2.57625 0.06,0.275 0.15875,0.23125 0.2325,0.14875 0.275,0.0525 1.43375,-0.0187 0.27375,-0.06 0.2275,-0.155 0.15375,-0.235 0.0513,-0.27625 -0.0338,-2.57625 -0.06,-0.27375 -0.1575,-0.22875 -0.23375,-0.15625 -0.275,-0.0488 -1.4325,0.0188 -0.275,0.0563 -0.2275,0.16125 -0.1525,0.23375 -0.0525,0.275" style="fill:#2a2724;fill-opacity:1;fill-rule:nonzero;stroke:none" id="path16562" />
    <path inkscape:connector-curvature="0" d="m 606,148.75968 0.035,2.5775 0.055,0.27375 0.15875,0.23125 0.23625,0.15 0.2725,0.0513 1.4325,-0.0188 0.27375,-0.0588 0.22875,-0.15625 0.1525,-0.235 0.0525,-0.275 -0.0338,-2.5775 -0.06,-0.27375 -0.15875,-0.22875 -0.2325,-0.155 -0.275,-0.0488 -1.4325,0.0188 -0.2725,0.0562 -0.23,0.16125 -0.15375,0.2325 -0.0488,0.275" style="fill:#2a2724;fill-opacity:1;fill-rule:nonzero;stroke:none" id="path16564" />
    <path inkscape:connector-curvature="0" d="m 525.80125,149.81968 0.0338,2.57625 0.0562,0.275 0.15875,0.23 0.235,0.15 0.27625,0.0525 1.43,-0.02 0.27375,-0.0588 0.22875,-0.155 0.155,-0.23625 0.0488,-0.275 -0.0337,-2.5775 -0.0563,-0.27375 -0.16125,-0.22875 -0.2325,-0.155 -0.275,-0.0488 -1.43,0.0188 -0.275,0.0562 -0.23125,0.16125 -0.1525,0.2325 -0.0488,0.27625" style="fill:#2a2724;fill-opacity:1;fill-rule:nonzero;stroke:none" id="path16566" />
    <path inkscape:connector-curvature="0" d="m 514.36375,151.41218 0.015,1.135 0.0562,0.275 0.15875,0.23 0.235,0.15 0.2725,0.0525 1.43375,-0.02 0.27375,-0.0588 0.22875,-0.155 0.155,-0.23625 0.0488,-0.275 -0.0238,-1.78875" style="fill:#2a2724;fill-opacity:1;fill-rule:nonzero;stroke:none" id="path16568" />
    <path inkscape:connector-curvature="0" d="m 520.075,150.03093 0.0325,2.44125 0.0563,0.27375 0.15875,0.23125 0.235,0.15 0.275,0.0512 1.43,-0.0187 0.275,-0.0588 0.23,-0.15625 0.15,-0.235 0.0525,-0.27625 -0.0338,-2.57625 -0.0512,-0.255 -0.13625,-0.2175" style="fill:#2a2724;fill-opacity:1;fill-rule:nonzero;stroke:none" id="path16570" />
    <path inkscape:connector-curvature="0" d="m 508.66875,152.78718 0.055,0.14875 0.125,0.17375 0.0788,0.07 0.2125,0.115 0.23375,0.035 1.4325,-0.0187 0.27375,-0.0588 0.22875,-0.15625 0.1525,-0.235 0.0525,-0.27625 -0.006,-0.4825" style="fill:#2a2724;fill-opacity:1;fill-rule:nonzero;stroke:none" id="path16572" />
    <path inkscape:connector-curvature="0" d="m 531.53,149.74343 0.0338,2.5775 0.0562,0.27375 0.15875,0.23125 0.235,0.15 0.27625,0.0512 1.43,-0.0187 0.27375,-0.0588 0.23125,-0.15625 0.1525,-0.235 0.0487,-0.27625 -0.0337,-2.57625 -0.0563,-0.27375 -0.15875,-0.22875 -0.235,-0.155 -0.27625,-0.05 -1.43,0.02 -0.27375,0.0563 -0.23125,0.16125 -0.1525,0.2325 -0.0488,0.275" style="fill:#2a2724;fill-opacity:1;fill-rule:nonzero;stroke:none" id="path16574" />
    <path inkscape:connector-curvature="0" d="m 537.965,148.94218 1.43,-0.0188 0.275,0.0488 0.23625,0.155 0.15875,0.22875 0.0562,0.27375 0.0337,2.5775 -0.0487,0.275 -0.1525,0.235 -0.23125,0.15625 -0.275,0.0587 -1.43,0.02 -0.275,-0.0525 -0.235,-0.15 -0.15875,-0.23125 -0.0562,-0.27375 -0.035,-2.57625 0.05,-0.27625 0.1525,-0.2325 0.23,-0.16125 0.275,-0.0563" style="fill:#2a2724;fill-opacity:1;fill-rule:nonzero;stroke:none" id="path16576" />
    <path inkscape:connector-curvature="0" d="m 533.7025,148.99843 0.265,0.06 0.22125,0.15625 0.15,0.225 0.0538,0.26625 0.0337,2.57625 -0.0487,0.27625 -0.1525,0.235 -0.23125,0.15625 -0.27375,0.0588 -1.43,0.0187 -0.27625,-0.0512 -0.235,-0.15 -0.15875,-0.23125 -0.0562,-0.27375 -0.0338,-2.5775 0.0788,-0.34" style="fill:#2a2724;fill-opacity:1;fill-rule:nonzero;stroke:none" id="path16578" />
    <path inkscape:connector-curvature="0" d="m 528.66625,149.97343 0.0312,2.385 -0.0488,0.275 -0.155,0.23625 -0.22875,0.155 -0.27375,0.0588 -1.43,0.02 -0.27625,-0.0525 -0.235,-0.15 -0.15875,-0.23 -0.0562,-0.275 -0.0238,-1.86875" style="fill:#2a2724;fill-opacity:1;fill-rule:nonzero;stroke:none" id="path16580" />
    <path inkscape:connector-curvature="0" d="m 522.9525,151.07843 0.0175,1.355 -0.0525,0.27625 -0.15,0.235 -0.23,0.15625 -0.275,0.0588 -1.43,0.0187 -0.275,-0.0512 -0.235,-0.15 -0.15875,-0.23125 -0.0563,-0.27375 -0.0112,-0.83875" style="fill:#2a2724;fill-opacity:1;fill-rule:nonzero;stroke:none" id="path16582" />
    <path inkscape:connector-curvature="0" d="m 517.2375,152.18468 0.004,0.325 -0.0488,0.275 -0.155,0.23625 -0.22875,0.155 -0.27375,0.0588 -1.43375,0.02 -0.23,-0.0362 -0.2075,-0.105 -0.075,-0.0687 -0.125,-0.1675 -0.06,-0.14375" style="fill:#2a2724;fill-opacity:1;fill-rule:nonzero;stroke:none" id="path16584" />
    <path inkscape:connector-curvature="0" d="m 308.6925,152.68593 0.0337,2.5775 0.0563,0.27375 0.15875,0.23125 0.235,0.15 0.27375,0.0513 1.4325,-0.0188 0.27375,-0.0588 0.23125,-0.15625 0.1525,-0.235 0.05,-0.27625 -0.035,-2.57625 -0.0563,-0.27375 -0.15875,-0.22875 -0.235,-0.155 -0.275,-0.05 -1.43375,0.02 -0.27125,0.0563 -0.23125,0.16125 -0.1525,0.2325 -0.0487,0.275" style="fill:#2a2724;fill-opacity:1;fill-rule:nonzero;stroke:none" id="path16586" />
    <path inkscape:connector-curvature="0" d="m 297.23625,152.83718 0.0337,2.5775 0.0563,0.27375 0.15875,0.23125 0.235,0.15 0.2725,0.0512 1.43375,-0.0187 0.27375,-0.0588 0.22875,-0.15625 0.155,-0.235 0.0487,-0.27625 -0.0337,-2.57625 -0.0562,-0.27375 -0.16125,-0.22875 -0.2325,-0.155 -0.27625,-0.0487 -1.4325,0.0187 -0.27125,0.0563 -0.23125,0.16125 -0.1525,0.2325 -0.0488,0.275" style="fill:#2a2724;fill-opacity:1;fill-rule:nonzero;stroke:none" id="path16588" />
    <path inkscape:connector-curvature="0" d="m 320.15,152.53468 0.0337,2.5775 0.0563,0.27375 0.15875,0.23125 0.235,0.15 0.275,0.0513 1.43,-0.0188 0.275,-0.0588 0.23125,-0.15625 0.15125,-0.235 0.05,-0.27625 -0.0337,-2.57625 -0.0575,-0.27375 -0.1575,-0.22875 -0.23625,-0.155 -0.275,-0.05 -1.43,0.02 -0.275,0.0563 -0.23,0.16125 -0.1525,0.2325 -0.0488,0.275" style="fill:#2a2724;fill-opacity:1;fill-rule:nonzero;stroke:none" id="path16590" />
    <path inkscape:connector-curvature="0" d="m 325.8775,152.45968 0.0337,2.57625 0.0575,0.27375 0.16,0.23125 0.2325,0.15 0.27625,0.0525 1.4325,-0.02 0.27125,-0.0588 0.23125,-0.15625 0.1525,-0.235 0.0487,-0.275 -0.0337,-2.5775 -0.0563,-0.27375 -0.15875,-0.22875 -0.235,-0.155 -0.2725,-0.0488 -1.4325,0.0188 -0.275,0.0563 -0.22875,0.16125 -0.155,0.2325 -0.0487,0.27625" style="fill:#2a2724;fill-opacity:1;fill-rule:nonzero;stroke:none" id="path16592" />
    <path inkscape:connector-curvature="0" d="m 363.1125,151.96718 0.0337,2.5775 0.06,0.27375 0.155,0.23125 0.23625,0.15 0.275,0.0513 1.43,-0.0188 0.27375,-0.0588 0.23125,-0.15625 0.1525,-0.235 0.05,-0.275 -0.035,-2.5775 -0.0563,-0.27375 -0.15875,-0.22875 -0.235,-0.155 -0.275,-0.0487 -1.43,0.0187 -0.275,0.0563 -0.23125,0.16125 -0.14875,0.2325 -0.0525,0.275" style="fill:#2a2724;fill-opacity:1;fill-rule:nonzero;stroke:none" id="path16594" />
    <path inkscape:connector-curvature="0" d="m 369.4125,151.88468 0.035,2.57625 0.0588,0.275 0.15875,0.23 0.2325,0.15 0.275,0.0525 1.43375,-0.02 0.27125,-0.0588 0.23125,-0.155 0.1525,-0.23625 0.0512,-0.275 -0.0337,-2.5775 -0.0587,-0.27375 -0.15875,-0.22875 -0.235,-0.155 -0.27375,-0.0488 -1.4325,0.0188 -0.27375,0.0562 -0.22875,0.16125 -0.1525,0.2325 -0.0525,0.27625" style="fill:#2a2724;fill-opacity:1;fill-rule:nonzero;stroke:none" id="path16596" />
    <path inkscape:connector-curvature="0" d="m 375.71625,151.80093 0.0337,2.5775 0.0562,0.27375 0.15875,0.23125 0.235,0.15 0.27375,0.0512 1.4325,-0.0187 0.27375,-0.0588 0.22875,-0.15625 0.155,-0.235 0.0487,-0.27625 -0.0337,-2.57625 -0.0563,-0.27375 -0.16125,-0.22875 -0.2325,-0.155 -0.27625,-0.05 -1.4325,0.02 -0.27125,0.0563 -0.23125,0.16125 -0.1525,0.2325 -0.0487,0.275" style="fill:#2a2724;fill-opacity:1;fill-rule:nonzero;stroke:none" id="path16598" />
    <path inkscape:connector-curvature="0" d="m 388.31625,151.63468 0.035,2.5775 0.0588,0.27375 0.15875,0.23125 0.2325,0.14875 0.275,0.0525 1.4325,-0.0188 0.275,-0.0588 0.22875,-0.15625 0.15125,-0.235 0.0525,-0.27625 -0.0337,-2.57625 -0.06,-0.27375 -0.1575,-0.22875 -0.2325,-0.15625 -0.27625,-0.0488 -1.4325,0.0188 -0.275,0.0562 -0.2275,0.1625 -0.1525,0.2325 -0.0525,0.275" style="fill:#2a2724;fill-opacity:1;fill-rule:nonzero;stroke:none" id="path16600" />
    <path inkscape:connector-curvature="0" d="m 394.62,151.55093 0.0337,2.5775 0.0562,0.27375 0.15875,0.23125 0.235,0.15 0.27625,0.0512 1.43,-0.0187 0.27375,-0.0588 0.23125,-0.15625 0.15,-0.235 0.0513,-0.275 -0.0337,-2.5775 -0.0588,-0.27375 -0.15625,-0.22875 -0.235,-0.155 -0.27625,-0.0488 -1.43,0.0188 -0.27375,0.0563 -0.23125,0.16125 -0.1525,0.2325 -0.0487,0.275" style="fill:#2a2724;fill-opacity:1;fill-rule:nonzero;stroke:none" id="path16602" />
    <path inkscape:connector-curvature="0" d="m 382.01625,151.71718 0.0337,2.5775 0.0562,0.27375 0.1625,0.23125 0.2325,0.15 0.275,0.0513 1.4325,-0.0188 0.27125,-0.0588 0.23125,-0.15625 0.1525,-0.235 0.05,-0.275 -0.035,-2.5775 -0.0563,-0.27375 -0.15875,-0.22875 -0.235,-0.155 -0.2725,-0.0487 -1.4325,0.0187 -0.275,0.0563 -0.2275,0.16125 -0.15625,0.2325 -0.0487,0.275" style="fill:#2a2724;fill-opacity:1;fill-rule:nonzero;stroke:none" id="path16604" />
    <path inkscape:connector-curvature="0" d="m 399.77375,151.48343 0.0337,2.5775 0.0587,0.27375 0.15875,0.23125 0.235,0.14875 0.27375,0.0525 1.4325,-0.0187 0.27375,-0.06 0.22875,-0.155 0.1525,-0.235 0.0513,-0.27625 -0.0337,-2.57625 -0.0588,-0.27375 -0.15875,-0.22875 -0.2325,-0.15625 -0.27625,-0.0488 -1.4325,0.0188 -0.27125,0.0563 -0.23125,0.16125 -0.1525,0.23375 -0.0512,0.275" style="fill:#2a2724;fill-opacity:1;fill-rule:nonzero;stroke:none" id="path16606" />
    <path inkscape:connector-curvature="0" d="m 405.50125,151.40718 0.035,2.5775 0.0588,0.27375 0.15875,0.23125 0.2325,0.15 0.275,0.0513 1.43375,-0.0188 0.27375,-0.0588 0.2275,-0.15625 0.1525,-0.235 0.0525,-0.275 -0.0337,-2.5775 -0.06,-0.27375 -0.1575,-0.22875 -0.23375,-0.155 -0.275,-0.0487 -1.4325,0.0187 -0.27375,0.0563 -0.22875,0.16125 -0.1525,0.2325 -0.0525,0.275" style="fill:#2a2724;fill-opacity:1;fill-rule:nonzero;stroke:none" id="path16608" />
    <path inkscape:connector-curvature="0" d="m 411.2325,151.33218 0.0337,2.57625 0.0575,0.275 0.1575,0.23125 0.23625,0.14875 0.2725,0.0525 1.4325,-0.0187 0.27375,-0.06 0.22875,-0.155 0.155,-0.235 0.05,-0.27625 -0.035,-2.57625 -0.0563,-0.275 -0.16125,-0.2275 -0.2325,-0.15625 -0.275,-0.0488 -1.43375,0.0188 -0.27125,0.0563 -0.23125,0.16125 -0.15125,0.23375 -0.05,0.275" style="fill:#2a2724;fill-opacity:1;fill-rule:nonzero;stroke:none" id="path16610" />
    <path inkscape:connector-curvature="0" d="m 442.75,151.90718 -0.0125,-0.99125 -0.0563,-0.27375 -0.15875,-0.22875 -0.23625,-0.155 -0.275,-0.0488 -1.43,0.0188 -0.275,0.0563 -0.23,0.16125 -0.1525,0.2325 -0.05,0.275 0.0175,1.2525" style="fill:#2a2724;fill-opacity:1;fill-rule:nonzero;stroke:none" id="path16612" />
    <path inkscape:connector-curvature="0" d="m 437.02875,152.50468 -0.02,-1.5125 -0.0563,-0.275 -0.15875,-0.2275 -0.235,-0.15625 -0.27625,-0.0487 -1.43,0.0187 -0.27375,0.0563 -0.23125,0.16125 -0.1525,0.23375 -0.0487,0.275 0.0225,1.77125" style="fill:#2a2724;fill-opacity:1;fill-rule:nonzero;stroke:none" id="path16614" />
    <path inkscape:connector-curvature="0" d="m 431.3075,153.09968 -0.0275,-2.0325 -0.0562,-0.27375 -0.15875,-0.22875 -0.235,-0.155 -0.275,-0.0488 -1.43,0.0188 -0.275,0.0563 -0.23125,0.16125 -0.1525,0.2325 -0.0487,0.275 0.03,2.29375" style="fill:#2a2724;fill-opacity:1;fill-rule:nonzero;stroke:none" id="path16616" />
    <path inkscape:connector-curvature="0" d="m 425.58625,153.69718 -0.0337,-2.55375 -0.0563,-0.275 -0.1625,-0.2275 -0.2325,-0.15625 -0.275,-0.0487 -1.4325,0.0187 -0.27125,0.0563 -0.23125,0.16125 -0.1525,0.23375 -0.05,0.275 0.035,2.57625 0.0412,0.23375" style="fill:#2a2724;fill-opacity:1;fill-rule:nonzero;stroke:none" id="path16618" />
    <path inkscape:connector-curvature="0" d="m 419.6725,154.28718 0.13875,-0.2275 0.0463,-0.26375 -0.0337,-2.5775 -0.0588,-0.27375 -0.15625,-0.22875 -0.235,-0.155 -0.27625,-0.0488 -1.4325,0.0188 -0.27125,0.0562 -0.23125,0.16125 -0.1525,0.2325 -0.0487,0.275 0.0337,2.5775 0.045,0.24375 0.125,0.2125 0.19125,0.15875 0.23125,0.0825" style="fill:#2a2724;fill-opacity:1;fill-rule:nonzero;stroke:none" id="path16620" />
    <path inkscape:connector-curvature="0" d="m 65.920002,121.22718 5.15625,-0.0675 0.09125,6.88375 -5.165,-0.59375 -0.0825,-6.2225" style="fill:#000000;fill-opacity:1;fill-rule:nonzero;stroke:none" id="path16622" />
    <path inkscape:connector-curvature="0" d="m 63.365002,121.26093 -4.7975,5.3375 6.86125,0.7875 -0.08125,-6.15125 -1.9825,0.0263" style="fill:#000000;fill-opacity:1;fill-rule:nonzero;stroke:none" id="path16624" />
    <path inkscape:connector-curvature="0" d="m 48.730002,127.37593 1.78375,0.66125 c 2.25375,-1.07875 4.8475,-1.60625 7.345,-1.5075 l 4.72625,-5.25875 -5.97,0.08 -7.885,6.025" style="fill:#000000;fill-opacity:1;fill-rule:nonzero;stroke:none" id="path16626" />
    <path inkscape:connector-curvature="0" d="m 165.7875,134.51968 -0.25,-18.90375" style="fill:none;stroke:#000000;stroke-width:0.28435624;stroke-linecap:round;stroke-linejoin:round;stroke-miterlimit:10;stroke-opacity:1;stroke-dasharray:none" id="path16628" />
    <path inkscape:connector-curvature="0" d="m 166.95125,114.16343 9.16625,-0.12" style="fill:none;stroke:#000000;stroke-width:0.28435624;stroke-linecap:round;stroke-linejoin:round;stroke-miterlimit:10;stroke-opacity:1;stroke-dasharray:none" id="path16630" />
    <path inkscape:connector-curvature="0" d="m 177.81875,134.36093 -0.25,-18.90375" style="fill:none;stroke:#000000;stroke-width:0.28435624;stroke-linecap:round;stroke-linejoin:round;stroke-miterlimit:10;stroke-opacity:1;stroke-dasharray:none" id="path16632" />
    <path inkscape:connector-curvature="0" d="m 212.4525,153.95718 0.0338,2.57625 0.06,0.275 0.15875,0.23125 0.235,0.14875 0.2725,0.0525 1.4325,-0.0187 0.275,-0.06 0.22875,-0.155 0.15125,-0.235 0.0525,-0.27625 -0.0337,-2.5775 -0.06,-0.27375 -0.1575,-0.2275 -0.23375,-0.15625 -0.275,-0.0488 -1.4325,0.0188 -0.27125,0.0563 -0.23125,0.16125 -0.1525,0.2325 -0.0525,0.27625" style="fill:#2a2724;fill-opacity:1;fill-rule:nonzero;stroke:none" id="path16634" />
    <path inkscape:connector-curvature="0" d="m 108.1975,155.33343 0.0337,2.5775 0.0562,0.27375 0.15875,0.23125 0.235,0.15 0.27625,0.0512 1.42875,-0.0187 0.275,-0.0588 0.23125,-0.15625 0.14875,-0.235 0.0525,-0.27625 -0.0337,-2.57625 -0.06,-0.27375 -0.155,-0.22875 -0.235,-0.155 -0.27625,-0.05 -1.43,0.02 -0.27375,0.0563 -0.23125,0.16125 -0.1525,0.2325 -0.0487,0.275" style="fill:#2a2724;fill-opacity:1;fill-rule:nonzero;stroke:none" id="path16636" />
    <path inkscape:connector-curvature="0" d="m 112.08,167.60218 0.54875,-0.11875 0.46,-0.3175 0.30375,-0.4675 0.105,-0.5475 -0.25,-18.905 -0.11875,-0.5475 -0.3175,-0.46 -0.4675,-0.305 -0.55125,-0.10125 -9.1625,0.12125 -0.54875,0.11625 -0.46,0.31625 -0.30375,0.46875 -0.10125,0.55125 0.24875,18.90375 0.11625,0.545 0.3175,0.46 0.4675,0.305 0.55125,0.10375 9.1625,-0.12125" style="fill:none;stroke:#000000;stroke-width:0.28435624;stroke-linecap:round;stroke-linejoin:round;stroke-miterlimit:10;stroke-opacity:1;stroke-dasharray:none" id="path16638" />
    <path inkscape:connector-curvature="0" d="m 351.5,162.19093 -0.23875,-18.0875 -0.115,-0.5475 -0.3175,-0.46 -0.4675,-0.305 -0.54875,-0.10125 -9.16625,0.12125 -0.5475,0.115 -0.46,0.3175 -0.305,0.4675 -0.10125,0.55125 0.25,18.90375" style="fill:none;stroke:#000000;stroke-width:0.28435624;stroke-linecap:round;stroke-linejoin:round;stroke-miterlimit:10;stroke-opacity:1;stroke-dasharray:none" id="path16640" />
    <path inkscape:connector-curvature="0" d="m 345.63875,152.19843 0.035,2.57625 0.0588,0.275 0.15875,0.23125 0.235,0.14875 0.2725,0.0525 1.43375,-0.0188 0.27375,-0.06 0.23125,-0.155 0.15,-0.235 0.0512,-0.27625 -0.0337,-2.57625 -0.06,-0.275 -0.155,-0.2275 -0.23625,-0.15625 -0.275,-0.0488 -1.4325,0.0188 -0.27125,0.0562 -0.23125,0.16125 -0.1525,0.23375 -0.0525,0.275" style="fill:#2a2724;fill-opacity:1;fill-rule:nonzero;stroke:none" id="path16642" />
    <path inkscape:connector-curvature="0" d="m 465.62875,148.96468 -0.085,-6.37 -0.115,-0.54875 -0.3175,-0.45875 -0.4675,-0.305 -0.54875,-0.10125 -9.16625,0.12125 -0.545,0.115 -0.4625,0.3175 -0.305,0.4675 -0.10125,0.55125 0.10125,7.63625" style="fill:none;stroke:#000000;stroke-width:0.28435624;stroke-linecap:round;stroke-linejoin:round;stroke-miterlimit:10;stroke-opacity:1;stroke-dasharray:none" id="path16644" />
    <path inkscape:connector-curvature="0" d="m 626.785,160.80593 0.545,-0.11875 0.46,-0.3175 0.305,-0.4675 0.10125,-0.54875 -0.25,-18.90375 -0.115,-0.5475 -0.3175,-0.46 -0.4675,-0.305 -0.54875,-0.10125 -9.165,0.12125 -0.54875,0.115 -0.46,0.3175 -0.305,0.4675 -0.10125,0.55125 0.25,18.90375 0.11625,0.54625 0.31625,0.45875 0.46875,0.305 0.55125,0.10375 9.165,-0.12" style="fill:none;stroke:#000000;stroke-width:0.28435624;stroke-linecap:round;stroke-linejoin:round;stroke-miterlimit:10;stroke-opacity:1;stroke-dasharray:none" id="path16646" />
    <path inkscape:connector-curvature="0" d="m 623.47125,148.52968 0.0337,2.57625 0.0562,0.275 0.15875,0.23125 0.235,0.14875 0.27625,0.0525 1.4325,-0.0188 0.27125,-0.06 0.23125,-0.155 0.1525,-0.235 0.0487,-0.27625 -0.0337,-2.57625 -0.0562,-0.275 -0.15875,-0.2275 -0.235,-0.15625 -0.2725,-0.0487 -1.43375,0.0187 -0.27375,0.0563 -0.23125,0.16125 -0.1525,0.23375 -0.0487,0.275" style="fill:#2a2724;fill-opacity:1;fill-rule:nonzero;stroke:none" id="path16648" />
    <path inkscape:connector-curvature="0" d="m 166.95125,114.16343 -0.125,0.007 -0.08,0.0125 -0.11125,0.0212 -0.0525,0.0138 -0.11875,0.0388 -0.0575,0.025 -0.11375,0.0538 -0.0712,0.04 -0.0937,0.0625 -0.0437,0.0337 -0.0937,0.0825 -0.0438,0.0425 -0.0437,0.0475 -0.0788,0.095 -0.0337,0.045 -0.04,0.0613 -0.0188,0.0337 -0.0387,0.0725 -0.0512,0.115 -0.0213,0.0588 -0.0375,0.1175 -0.0125,0.055 -0.0137,0.0725 -0.005,0.0362 -0.008,0.0838 -0.006,0.125" style="fill:none;stroke:#000000;stroke-width:0.28435624;stroke-linecap:round;stroke-linejoin:round;stroke-miterlimit:10;stroke-opacity:1;stroke-dasharray:none" id="path16650" />
    <path inkscape:connector-curvature="0" d="m 177.56875,115.45718 -0.007,-0.125 -0.0125,-0.0837 -0.02,-0.1075 -0.015,-0.055 -0.0375,-0.11625 -0.0225,-0.0588 -0.055,-0.1125 -0.0425,-0.0725 -0.0625,-0.0937 -0.0337,-0.0438 -0.0812,-0.0925 -0.0425,-0.0475 -0.045,-0.0413 -0.0987,-0.0787 -0.045,-0.0325 -0.0613,-0.0413 -0.0312,-0.0187 -0.075,-0.0375 -0.11125,-0.0512 -0.0613,-0.025 -0.1175,-0.0337 -0.0563,-0.0138 -0.0725,-0.0125 -0.0363,-0.005 -0.0825,-0.01 -0.125,-0.004" style="fill:none;stroke:#000000;stroke-width:0.28435624;stroke-linecap:round;stroke-linejoin:round;stroke-miterlimit:10;stroke-opacity:1;stroke-dasharray:none" id="path16652" />
    <path inkscape:connector-curvature="0" d="m 207.7475,166.33843 9.16625,-0.12125 0.545,-0.1175 0.46,-0.3175 0.305,-0.4675 0.10125,-0.54875 -0.25,-18.90375 -0.115,-0.5475 -0.3175,-0.46 -0.4675,-0.305 -0.54875,-0.10125 -9.165,0.12125 -0.54875,0.115 -0.46,0.3175 -0.305,0.4675 -0.1,0.55125 0.24875,18.90375 0.115,0.54625 0.3175,0.45875 0.4675,0.305 0.55125,0.10375" style="fill:none;stroke:#000000;stroke-width:0.28435624;stroke-linecap:round;stroke-linejoin:round;stroke-miterlimit:10;stroke-opacity:1;stroke-dasharray:none" id="path16654" />
    <path inkscape:connector-curvature="0" d="m 542.68625,144.56468 -4.6175,-0.58125 -4.61375,-0.45 -4.605,-0.3175 -4.605,-0.2 -4.59625,-0.0437 -2.29625,0.0412 -2.2925,0.0937 -2.2925,0.14125 -2.29125,0.16125 -2.2975,0.16875 -2.2825,0.225 -2.2825,0.29375 -1.145,0.165 -1.14375,0.19 -1.13875,0.245 -0.56625,0.1575 -0.5675,0.16625 -0.57875,0.17375 -0.5575,0.21375 -0.285,0.13875 -0.2775,0.1625 -0.3325,0.2825 -0.215,0.38 0.23625,0.16875 0.44,0.0888 0.4825,-0.0312 0.29375,-0.0175 0.2925,0.002 0.56375,0.0387 0.57,0.0263 0.5775,0 0.5775,0.01 0.5725,0.0275 1.1375,0.0775 1.1475,0.0488 2.315,0.002 1.15875,-0.004 1.15,0.0125 2.28875,0.0475 2.29375,0.005 2.29875,-0.0637 2.29875,-0.1075 2.28875,-0.1325 4.58375,-0.31875 4.5775,-0.40875 4.57875,-0.4375 4.58,-0.42375 4.57625,-0.41875" style="fill:#a9acac;fill-opacity:1;fill-rule:nonzero;stroke:#000000;stroke-width:0.28435624;stroke-linecap:round;stroke-linejoin:round;stroke-miterlimit:10;stroke-opacity:1;stroke-dasharray:none" id="path16656" />
    <path inkscape:connector-curvature="0" d="m 173.1125,124.31968 0.0337,2.5775 0.0562,0.27375 0.15875,0.23125 0.235,0.15 0.27625,0.0512 1.43,-0.0187 0.27375,-0.0588 0.23125,-0.15625 0.15,-0.235 0.0512,-0.275 -0.0337,-2.5775 -0.0588,-0.27375 -0.15625,-0.22875 -0.235,-0.155 -0.27625,-0.0487 -1.43,0.0187 -0.27375,0.0563 -0.23125,0.16125 -0.1525,0.2325 -0.0487,0.275" style="fill:#2a2724;fill-opacity:1;fill-rule:nonzero;stroke:none" id="path16658" />
    <path inkscape:connector-curvature="0" d="m 77.983752,112.78343 2.58375,-0.345 0.93625,-0.1125 0.23,-0.0275 0.21125,-0.0162 0.31375,0.0125 0.12,0.0337 0.04,0.0525 0.0012,0.0587 0,0.0637 0.0037,0.26125 0.01375,1.035 0.0075,0.58625 0,0.007 0,0.006 0,0.005 0.0013,0.0588 -0.0075,0.0588 -0.13375,0.22875 -0.16125,0.13625 -0.22125,0.11125 -0.11,0.0337 -0.11625,0.025 -0.01125,0.002 -0.6425,0.125 -1.65375,0.33875 -0.62625,0.13875 -0.6225,0.14125 -0.105,0.0237 -0.10625,0.02 -0.0025,0 -0.0075,10e-4 -0.3175,-0.0325 -0.17125,-0.10625 -0.09875,-0.1425 -0.02375,-0.0912 -0.0063,-0.0975 -0.005,-0.36875 -0.0037,-0.23625 -0.0088,-0.73125 -0.0075,-0.5825 -0.0025,-0.1725 -0.0038,-0.235 0.01625,-0.0425 0.055,-0.045 0.26,-0.10375 0.3825,-0.0775" style="fill:#000000;fill-opacity:1;fill-rule:nonzero;stroke:none" id="path16660" />
    <path inkscape:connector-curvature="0" d="m 137.3425,169.37718 25.935,-0.3425 c 1.53625,-0.02 2.7975,1.20875 2.8175,2.745 l 0.22,16.685 c 0.0213,1.53625 -1.2075,2.7975 -2.74375,2.81875 l -25.935,0.3425 c -1.53625,0.02 -2.7975,-1.20875 -2.81875,-2.745 l -0.22,-16.68625 c -0.02,-1.53625 1.20875,-2.7975 2.745,-2.8175 z" style="fill:#e7e7e7;fill-opacity:1;fill-rule:nonzero;stroke:#000000;stroke-width:0.12499825;stroke-linecap:round;stroke-linejoin:round;stroke-miterlimit:10;stroke-opacity:1;stroke-dasharray:none" id="path17584" />
    <path inkscape:connector-curvature="0" d="M 495.80375,164.14343 521.49,163.80468 c 1.67375,-0.0225 3.04875,1.31625 3.07,2.99125 l 0.33375,16.93375 c 0.0213,1.675 -1.6475,2.9125 -3.32125,2.935 l -25.4475,1.7275 c -1.675,0.0213 -3.05,-1.3175 -3.07125,-2.99125 l -0.24,-18.18625 c -0.0225,-1.67375 1.31625,-3.04875 2.99,-3.07125 z" style="fill:none;stroke:#000000;stroke-width:0.28435624;stroke-linecap:round;stroke-linejoin:round;stroke-miterlimit:10;stroke-opacity:1;stroke-dasharray:none" id="path17586" />
    <path inkscape:connector-curvature="0" d="m 544.7775,168.15343 9.4325,-0.12375 c 0.86875,-0.0125 1.58125,0.6825 1.5925,1.55125 l 0.12625,9.52 c 0.0113,0.86875 -0.51875,1.49125 -1.38625,1.5025 l -9.58,1.61125 c -0.8675,0.0113 -1.58125,-0.6825 -1.5925,-1.55125 l -0.14375,-10.91625 c -0.0113,-0.86875 0.6825,-1.5825 1.55125,-1.59375 z" style="fill:none;stroke:#000000;stroke-width:0.28435624;stroke-linecap:round;stroke-linejoin:round;stroke-miterlimit:10;stroke-opacity:1;stroke-dasharray:0.3125, 0.3125;stroke-dashoffset:0" id="path17588" />
  </g>
</svg>
